<svg width="204" height="141" viewBox="0 0 204 141" fill="none" xmlns="http://www.w3.org/2000/svg">
<path d="M41.0694 38.8612C41.4037 38.8397 41.7394 38.8289 42.0751 38.8235L42.0359 38.7078C43.5655 38.6338 45.0993 38.6352 46.6303 38.6917C46.6276 38.7239 46.6249 38.7885 46.6222 38.8208C47.1379 38.8262 47.6591 38.8114 48.1681 38.9123C48.3616 38.9554 48.5552 39.0025 48.7474 39.0563C49.0249 39.0697 49.3025 39.0845 49.58 39.1087C50.0578 39.355 50.6101 39.3348 51.1326 39.3644C51.1177 39.4034 51.0853 39.4828 51.069 39.5218C51.4047 39.5635 51.7418 39.6092 52.0802 39.6402L52.0234 39.7424C52.3523 39.7774 52.6772 39.8501 53.0034 39.9039C53.0278 39.9819 53.0765 40.1393 53.1009 40.2174C53.1144 40.543 53.0941 40.8739 53.1699 41.1941C53.3594 41.7955 53.2701 42.4346 53.3161 43.0549C53.3662 43.6563 53.4095 44.2577 53.4217 44.8604C53.4528 44.8618 53.5165 44.8644 53.5476 44.8644C53.4664 45.6892 53.7222 46.4897 53.7046 47.3118C53.5002 47.3467 53.2972 47.3858 53.0941 47.4221C53.1049 47.453 53.128 47.5176 53.1388 47.5486C53.0291 47.5486 52.8098 47.5499 52.7002 47.5499L52.7557 47.4463C52.5757 47.3871 52.3997 47.3225 52.2223 47.262C52.1709 46.9445 52.1222 46.6269 52.0775 46.3108C52.045 46.3269 51.9787 46.3619 51.9462 46.3794C51.8934 46.0901 51.8271 45.8035 51.7662 45.517L51.6741 45.5587C51.5726 45.2721 51.4629 44.9896 51.36 44.7043L51.2545 44.7595C51.2111 44.5711 51.1678 44.3814 51.1245 44.1944C51.0947 44.2025 51.0365 44.2186 51.0067 44.2267C50.9282 44.0949 50.847 43.9644 50.7644 43.8365C50.6778 43.7034 50.5912 43.5675 50.5086 43.4329C50.3597 43.2674 50.2121 43.1006 50.0605 42.9378C49.9346 42.7965 49.8074 42.6566 49.6815 42.5153C49.5772 42.4427 49.4744 42.3714 49.3715 42.3014C49.117 42.0942 48.8503 41.9018 48.5796 41.7189C48.3048 41.5762 48.0259 41.4417 47.7362 41.3341C47.7376 41.3125 47.7403 41.2681 47.7417 41.2466C47.4817 41.1928 47.2286 41.1161 46.9836 41.0165C46.3853 40.7488 45.703 40.8053 45.1033 40.5618C44.3358 40.5187 43.5669 40.5349 42.7994 40.551L42.8806 40.6869C42.3933 40.6923 41.9127 40.7609 41.4335 40.8322L41.4836 40.9506C41.2562 40.96 41.0287 40.9695 40.8027 40.9789V41.0811C40.5685 41.1269 40.3357 41.182 40.1042 41.2345L40.1583 41.3462C39.8835 41.3906 39.5925 41.4229 39.3867 41.6314C39.2256 41.6866 39.0673 41.7417 38.9062 41.7955L38.9183 41.9247C38.871 41.9247 38.7776 41.9247 38.7302 41.9234C38.5691 42.027 38.4053 42.1238 38.2402 42.2193L38.2902 42.3162C38.1278 42.3579 37.9667 42.3996 37.807 42.4427L37.8665 42.5369C37.7474 42.6163 37.6296 42.6956 37.5105 42.775C37.3657 42.9069 37.2235 43.0427 37.0814 43.1773C36.9839 43.254 36.8851 43.3307 36.7849 43.406C36.6929 43.5056 36.5995 43.6051 36.5061 43.7047C36.4276 43.7989 36.3504 43.8944 36.2719 43.9886C36.1352 44.1272 35.9998 44.2671 35.8617 44.4057C35.7873 44.5267 35.7142 44.6478 35.6424 44.7716L35.572 44.7111C35.4935 44.9479 35.3852 45.1806 35.1781 45.3327C35.1064 45.5008 35.0373 45.6704 34.971 45.8412L34.8627 45.7834C34.8072 45.9825 34.749 46.1816 34.6976 46.3834C34.6529 46.3727 34.5635 46.3511 34.5189 46.3404C34.5013 46.4776 34.4688 46.7521 34.4525 46.8893C34.4092 46.8866 34.3226 46.8799 34.2793 46.8772C34.2942 46.9458 34.3226 47.0844 34.3375 47.153L34.2143 47.1476C34.1493 47.3831 34.0776 47.6172 34.0167 47.8553L33.9002 47.7988C33.8975 47.8943 33.8921 48.0854 33.8881 48.1823C33.8123 48.4002 33.7703 48.637 33.6336 48.8294C33.5334 49.3272 33.4603 49.8317 33.2627 50.304C33.2478 50.6054 33.2302 50.9067 33.2153 51.2094C33.1638 51.2094 33.0596 51.2094 33.0068 51.2094C32.9608 52.7782 32.9662 54.347 32.9703 55.9157L33.0867 55.8875C33.0894 56.2951 33.1043 56.7028 33.1097 57.1105L33.2261 57.1131C33.2356 57.4266 33.2491 57.7415 33.2532 58.0563L33.3479 58.0549C33.3669 58.3805 33.3872 58.7088 33.4332 59.0331C33.6931 59.2712 33.616 59.6533 33.6674 59.9681L33.7974 59.8726C33.8434 60.1202 33.8894 60.3677 33.926 60.618C33.949 60.6126 33.9936 60.6018 34.0167 60.5964C34.1263 60.9691 34.2441 61.3418 34.3646 61.7131L34.4593 61.6593C34.5121 61.9015 34.5676 62.1437 34.6136 62.3899C34.6637 62.3778 34.7639 62.3536 34.8126 62.3414C34.8208 62.4477 34.8383 62.6603 34.8465 62.7679L34.9575 62.7289C35.059 62.959 35.1727 63.185 35.2945 63.407C35.5287 63.6936 35.7318 64.0017 35.9267 64.3165C36.0445 64.4497 36.1595 64.5843 36.276 64.7215C36.3856 64.8601 36.502 64.9919 36.6239 65.1238C36.6293 65.1695 36.6401 65.2624 36.6455 65.3081C36.7118 65.3068 36.8432 65.3041 36.9081 65.3041C36.9014 65.3619 36.8878 65.4776 36.8811 65.5355C36.9311 65.5503 37.0313 65.5785 37.0814 65.5933C37.2235 65.7467 37.3603 65.9068 37.4997 66.0656C37.6269 66.1396 37.7515 66.2176 37.8747 66.301L37.8056 66.3912C37.964 66.4409 38.1237 66.4907 38.2835 66.5405L38.2212 66.6387C38.3985 66.7423 38.5732 66.85 38.7464 66.9643C38.9048 67.0625 39.0713 67.1473 39.2392 67.2334L39.1769 67.3114C39.3962 67.3854 39.6155 67.4648 39.8118 67.5913C39.9634 67.6478 40.1164 67.7016 40.2707 67.7568L40.2612 67.8779C40.3668 67.8765 40.578 67.8725 40.6836 67.8698C40.6836 67.9048 40.6849 67.9761 40.6849 68.0111C40.9908 68.081 41.2995 68.1456 41.6122 68.1927C41.6068 68.2357 41.5973 68.3218 41.5932 68.3636C41.7462 68.3622 42.0548 68.3595 42.2078 68.3582C42.1943 68.3999 42.1685 68.4846 42.155 68.5263C43.4085 68.5963 44.6593 68.669 45.9128 68.5533C46.3054 68.3474 46.7602 68.3407 47.1907 68.2801L47.1284 68.1631C47.3437 68.1133 47.5589 68.0622 47.7755 68.0137C47.8987 67.9303 48.0219 67.8469 48.1451 67.7648C48.3264 67.7083 48.5078 67.6478 48.6892 67.5899L48.6378 67.4863C48.8097 67.4312 48.983 67.376 49.1563 67.3222C49.4459 67.0585 49.7437 66.8015 50.0592 66.5688C50.1553 66.484 50.2527 66.3979 50.3488 66.3118C50.4626 66.2055 50.5763 66.0979 50.69 65.9902C50.7929 65.8705 50.8944 65.7481 50.9959 65.6283C51.3411 65.2247 51.6416 64.7888 51.9503 64.3596C52.2047 63.9613 52.4132 63.5375 52.6447 63.1272C52.7719 62.9227 52.8383 62.6926 52.8938 62.4625C52.9208 62.4773 52.9736 62.5083 52.9994 62.5244C53.0711 62.2352 53.1022 61.9002 53.3892 61.7374C53.3973 61.6849 53.4136 61.5826 53.4204 61.5315C53.6952 61.5302 53.9713 61.5369 54.2475 61.5503C54.2366 61.6028 54.215 61.7091 54.2041 61.7616C54.307 61.7831 54.5101 61.8235 54.6129 61.8436C54.5967 62.0777 54.5669 62.3119 54.5101 62.5419C54.552 63.2079 54.2502 63.8214 54.2136 64.4793C53.9916 64.8063 53.9997 65.2139 53.9537 65.5906C53.9212 65.5853 53.8589 65.5745 53.8278 65.5691C53.8048 66.0508 53.5977 66.4948 53.5002 66.963L53.4149 66.9118C53.3649 67.1607 53.3053 67.4097 53.2525 67.6599L53.1334 67.5657C53.0846 67.8146 53.0346 68.0635 52.9858 68.3124L52.8978 68.2613C52.8315 68.4429 52.7462 68.6192 52.6325 68.7779C52.6149 68.8492 52.5811 68.9919 52.5635 69.0645C52.3415 69.0726 52.1195 69.0807 51.8988 69.0874C51.9029 69.121 51.9123 69.191 51.9178 69.2246C51.6335 69.2609 51.3506 69.3027 51.069 69.339C51.0866 69.3726 51.1204 69.4399 51.138 69.4749C50.8091 69.5179 50.4815 69.5744 50.1539 69.6229C50.162 69.6578 50.1796 69.7265 50.1878 69.7614C49.9793 69.7709 49.7708 69.7816 49.5637 69.7951C49.1887 69.9794 48.7772 70.0467 48.3616 70.0319L48.3955 70.1583C47.8838 70.1947 47.3748 70.2619 46.8645 70.2929C46.8794 70.3279 46.9091 70.3978 46.924 70.4328C45.5433 70.4247 44.1639 70.6467 42.7858 70.4786C42.113 70.4072 41.3915 70.5808 40.758 70.2875C40.3248 70.2471 39.893 70.192 39.4612 70.1557L39.4896 70.0292C39.2825 70.0211 39.0767 70.0117 38.871 70.0023C38.7058 69.9471 38.5393 69.896 38.3728 69.8489L38.3796 69.7924C38.1129 69.7803 37.8368 69.7736 37.6202 69.6013C37.4158 69.5596 37.21 69.522 37.0056 69.487C37.0178 69.4547 37.0435 69.3901 37.057 69.3592C36.7795 69.3323 36.498 69.2838 36.2814 69.0968C36.2164 69.0887 36.0864 69.0699 36.0215 69.0605C35.8211 68.9528 35.6127 68.86 35.4015 68.7793L35.4475 68.6743C35.3284 68.6663 35.0915 68.6474 34.9724 68.638C34.9791 68.5936 34.9913 68.5021 34.9967 68.4577C34.7828 68.3905 34.569 68.3218 34.3781 68.2048C34.1818 68.112 33.9923 68.0043 33.8177 67.8779C33.7906 67.8779 33.7378 67.8765 33.7107 67.8752C33.5456 67.742 33.3777 67.6088 33.2153 67.4742C33.088 67.3975 32.9621 67.3209 32.839 67.2428C32.575 67.0477 32.3232 66.8392 32.0768 66.6239C31.9767 66.5392 31.8765 66.4571 31.7736 66.3777C31.4447 66.071 31.132 65.7467 30.8287 65.4157C30.7462 65.3094 30.6622 65.2059 30.5756 65.1063C30.4741 64.9852 30.3739 64.8641 30.2764 64.7444C30.1302 64.5681 29.9867 64.3919 29.8527 64.2089C29.7119 63.9452 29.5184 63.7151 29.3221 63.4918C29.3194 63.4662 29.3126 63.4151 29.3099 63.3895C29.1976 63.2039 29.0879 63.0182 28.9783 62.8325C28.8984 62.6724 28.8212 62.5123 28.7481 62.3522C28.7211 62.3616 28.6656 62.3818 28.6385 62.3912C28.5992 62.1881 28.5532 61.9863 28.5112 61.7858C28.4801 61.7898 28.4178 61.7992 28.3853 61.8033C28.3583 61.693 28.3041 61.4696 28.277 61.3593C28.0577 60.9395 27.8818 60.4996 27.8141 60.0314C27.7802 60.0475 27.7112 60.0825 27.6774 60.1C27.6679 59.8847 27.6598 59.6721 27.6503 59.4582C27.4973 59.1232 27.385 58.7707 27.3768 58.4007C27.32 58.1733 27.2767 57.9446 27.2388 57.7146C27.1846 57.4347 27.1508 57.1522 27.1305 56.8696C26.8665 55.5323 27.033 54.1505 27.033 52.7957L27.1481 52.8549C27.1548 52.5549 27.1657 52.2535 27.1819 51.9548C27.255 51.7315 27.3173 51.5054 27.3917 51.2848C27.4066 51.013 27.4188 50.7412 27.4296 50.4695L27.5406 50.5529C27.6016 50.2259 27.6692 49.899 27.7139 49.5694C27.7464 49.5828 27.81 49.6084 27.8425 49.6219C27.8804 49.3824 27.9224 49.1429 27.9562 48.9034C27.9819 48.9088 28.032 48.9182 28.0578 48.9236C28.1187 48.7164 28.1823 48.5105 28.2446 48.3047C28.296 48.1688 28.3488 48.0356 28.4029 47.9011C28.8009 47.1772 29.1542 46.4305 29.605 45.7363C29.7038 45.6004 29.8067 45.4672 29.9069 45.3313C30.1329 45.0394 30.3671 44.7528 30.5702 44.4433L30.6406 44.516C30.7015 44.3828 30.7638 44.2496 30.8247 44.1177C30.9276 44.0168 31.0304 43.9159 31.1333 43.8137L31.2294 43.8069L31.1834 43.7074C31.2944 43.6105 31.4041 43.5123 31.5137 43.4154C31.6058 43.3307 31.6964 43.2446 31.7871 43.1571C32.024 42.9432 32.2704 42.7414 32.5222 42.5449C32.7835 42.331 33.0474 42.1211 33.3276 41.9341C33.4752 41.8292 33.6227 41.7229 33.7689 41.6166C33.9585 41.5157 34.1507 41.4242 34.3456 41.3354L34.2684 41.2547C34.4174 41.2036 34.5663 41.1511 34.7138 41.0986C34.9724 40.9183 35.2553 40.7784 35.549 40.664L35.4962 40.5806C35.7088 40.5349 35.9199 40.4865 36.1338 40.4434L36.0621 40.3102C36.3003 40.2631 36.5359 40.2093 36.7741 40.1568L36.7173 40.06C36.9893 40.0304 37.2465 39.9335 37.4834 39.7976C37.5538 39.7841 37.6933 39.7586 37.7637 39.7451C38.3593 39.542 38.9563 39.2756 39.6006 39.2984C39.5965 39.25 39.5871 39.1504 39.583 39.102C39.8795 39.0886 40.1759 39.0751 40.4737 39.0657C40.6714 38.9971 40.8717 38.9338 41.0694 38.8612Z" fill="#0F0B0F"/>
<path d="M68.9444 39.1301C69.2083 38.8341 69.5102 38.5624 69.9393 38.6606L69.9082 38.748C70.0381 38.8745 70.1654 39.005 70.2859 39.1422C70.3522 39.449 70.4226 39.7558 70.4754 40.0679L70.5864 39.9818C70.6284 40.2764 70.6825 40.5697 70.7299 40.8644L70.8422 40.7904C70.8801 41.0595 70.9383 41.3245 71.0155 41.5869C71.0954 41.782 71.1346 41.9865 71.1685 42.1937L71.2402 42.1506C71.2984 42.7789 71.6382 43.3359 71.6802 43.9683C71.714 43.9548 71.7803 43.9266 71.8142 43.9131C71.8209 44.0342 71.8358 44.2764 71.8426 44.3975C71.9726 44.6733 72.0781 44.9625 72.1174 45.2666L72.2 45.2451C72.2419 45.5343 72.3069 45.8196 72.3611 46.1075C72.3908 46.0981 72.4518 46.0819 72.4815 46.0725C72.5194 46.3618 72.5736 46.6497 72.621 46.939L72.7306 46.8407C72.7604 47.0493 72.7942 47.2592 72.8403 47.4677C72.9919 47.8821 73.1408 48.2965 73.291 48.7122C73.2856 48.7728 73.2721 48.8925 73.2653 48.953L73.4102 48.8898C73.4454 49.1656 73.4359 49.471 73.6376 49.6917C73.6944 49.8975 73.7418 50.1074 73.7987 50.3146C73.8149 50.4761 73.8312 50.6389 73.8474 50.8017C73.8785 50.799 73.9381 50.7936 73.9692 50.7909C73.9895 50.9026 74.0329 51.1232 74.0532 51.2349C74.1127 51.3694 74.1737 51.5053 74.2359 51.6412C74.2386 51.7744 74.2413 51.9076 74.2454 52.0421L74.3713 51.9897C74.4146 52.2453 74.4688 52.5009 74.5215 52.7552C74.6921 53.0297 74.7679 53.3472 74.795 53.6661L74.8857 53.6095C74.9331 53.8665 75.0007 54.1208 75.0833 54.3697C75.151 54.5688 75.1889 54.7733 75.2255 54.9819C75.2512 54.9698 75.2999 54.9469 75.3243 54.9348C75.3554 55.1474 75.3893 55.3599 75.4272 55.5739C75.6532 55.8672 75.6789 56.2466 75.7453 56.5991L75.8685 56.5345C75.8752 56.7255 75.882 56.9166 75.8901 57.1103L75.9971 57.1063C76.0498 57.3539 76.1148 57.5987 76.1812 57.8449C76.3423 58.1167 76.3801 58.4315 76.4126 58.741C76.4438 58.7235 76.5047 58.6912 76.5345 58.675C76.6211 59.2724 76.8391 59.8388 77.0611 60.3985C77.0651 60.4927 77.0746 60.6811 77.0787 60.7753C77.1139 60.7685 77.1856 60.7564 77.2208 60.7497C77.2573 61.0268 77.302 61.3013 77.3426 61.5785C77.3778 61.5623 77.4482 61.5287 77.4834 61.5125C77.52 61.8045 77.5727 62.0965 77.6201 62.3898C77.6472 62.3803 77.7013 62.3615 77.7284 62.3521C77.7636 62.5579 77.8083 62.7611 77.8638 62.9642C77.945 63.2078 78.0154 63.4553 78.0695 63.7083L78.1778 63.68C78.1914 63.9168 78.2076 64.1549 78.2252 64.3944C78.274 64.385 78.3714 64.3662 78.4202 64.3568C78.4526 64.6891 78.5136 65.0174 78.5745 65.3456C78.6002 65.3349 78.6516 65.3134 78.6774 65.3012C78.7342 65.5784 78.8127 65.8542 78.875 66.1314C78.9115 66.1381 78.9846 66.1515 79.0212 66.1596L78.921 66.4166L79.0916 66.3749C79.1363 66.6144 79.1918 66.8525 79.25 67.0907C79.277 67.088 79.3298 67.0826 79.3569 67.0785C79.4408 67.2239 79.5302 67.3665 79.6222 67.5077C79.8226 67.6719 80.0256 67.836 80.2205 68.0109C80.4886 68.0742 80.7593 68.1334 81.0328 68.1845C81.0179 68.2154 80.9894 68.2773 80.9746 68.3069C81.3996 68.3459 81.8247 68.3957 82.2511 68.4334C82.2429 68.4549 82.2254 68.4993 82.2159 68.5222C82.515 68.5693 82.6193 68.8222 82.6924 69.0805L82.7749 69.0698C82.7695 69.2245 82.7655 69.3806 82.7641 69.538C82.6288 69.6887 82.5624 69.9752 82.3079 69.9214C81.5377 69.8878 80.7553 69.951 79.9972 69.8003C78.1914 69.7775 76.3856 69.7667 74.5811 69.8003C73.6389 69.9658 72.6724 69.8084 71.7357 70.0062C71.6517 69.9658 71.4825 69.8878 71.3986 69.8488C71.2768 69.4747 71.2402 69.0792 71.2957 68.6904C71.4568 68.4818 71.76 68.5908 71.9861 68.541L71.9008 68.4132C72.3787 68.393 72.8538 68.3446 73.329 68.2881L73.264 68.1845C73.3533 68.1414 73.5334 68.0567 73.6227 68.015L73.6944 68.0338C73.7242 67.8697 73.7554 67.7055 73.7906 67.5427C73.754 67.3086 73.7283 67.0732 73.7053 66.8391C73.5239 66.4812 73.5036 66.0749 73.4454 65.6874C73.4156 65.7049 73.3547 65.7399 73.3249 65.7573C73.2816 65.4694 73.2207 65.1869 73.1679 64.903C73.1354 64.907 73.0704 64.9138 73.0379 64.9165C73.0352 64.7792 73.0298 64.5021 73.0271 64.3648L72.9025 64.381C72.8673 64.1469 72.8173 63.9155 72.7699 63.6854C72.7374 63.6881 72.6751 63.6921 72.644 63.6948C72.5993 63.4432 72.5506 63.1943 72.5073 62.9441C72.4328 62.7786 72.3557 62.6144 72.2798 62.4516C72.2528 62.2767 72.2298 62.1018 72.2108 61.9283L72.0957 61.9875C72.089 61.8946 72.0741 61.7076 72.0673 61.6135C71.9793 61.3915 71.9008 61.1641 71.8142 60.9421C71.825 60.891 71.8467 60.7887 71.8575 60.7389L71.7032 60.7847C71.668 60.4833 71.6098 60.1873 71.5543 59.89C71.5272 59.9061 71.4703 59.9357 71.4433 59.9519C71.3905 59.668 71.3201 59.3895 71.2592 59.1083L71.1617 59.1661C71.0967 59.0141 71.0331 58.8607 70.9695 58.71C70.65 58.6212 70.3211 58.5755 69.9894 58.5822C67.9589 58.5809 65.927 58.5836 63.8965 58.5809C63.5472 58.5768 63.198 58.6145 62.8609 58.7033C62.8081 58.9414 62.7553 59.1796 62.712 59.4204L62.6362 59.3733C62.5252 59.8039 62.4047 60.233 62.2842 60.6622C62.2301 60.7618 62.1773 60.8614 62.1245 60.9609C62.088 61.2085 62.0609 61.4574 62.0365 61.7076C61.9891 61.6982 61.8971 61.678 61.8511 61.6673C61.8294 61.9108 61.8118 62.1557 61.7969 62.4005L61.6832 62.3413C61.5817 62.7947 61.4463 63.2414 61.3313 63.6921L61.2324 63.6666C61.2338 63.7204 61.2365 63.8294 61.2365 63.8832C61.1688 64.1038 61.1228 64.3325 61.0889 64.5613L60.9725 64.4832C60.9238 64.7671 60.8737 65.051 60.8358 65.3376C60.8074 65.3241 60.7532 65.2972 60.7248 65.2838C60.6314 65.7883 60.4744 66.278 60.3945 66.7866C60.3715 66.792 60.3255 66.8027 60.3011 66.8081C60.3038 67.1606 60.2226 67.5414 60.4189 67.8616L60.3986 68.0109C60.649 68.0782 60.9035 68.136 61.162 68.1724L61.0822 68.2908C61.5925 68.3338 62.1015 68.3809 62.6118 68.4159C62.601 68.4482 62.578 68.5128 62.5672 68.5451C62.7878 68.5652 63.1059 68.5693 63.1141 68.8653C63.1222 69.2339 63.2034 69.9295 62.6619 69.9241C59.7082 69.8124 56.7518 69.8515 53.798 69.9053C53.6586 69.4788 53.6681 69.0281 53.8075 68.6043C54.3869 68.3796 55.0096 68.3446 55.6241 68.3002L55.5267 68.1751C55.8421 68.1576 56.1521 68.0836 56.4323 67.9315C56.6475 67.7391 56.8465 67.5306 57.0144 67.2952C57.0861 67.1243 57.1633 66.9575 57.2445 66.792L57.3176 66.8162C57.4448 66.5 57.5572 66.1798 57.6425 65.8502C57.6736 65.8596 57.7372 65.8784 57.7684 65.8878C57.809 65.6564 57.8482 65.4264 57.8875 65.1963C57.9227 65.2017 57.9917 65.2124 58.0269 65.2192C58.0608 65.016 58.1014 64.8155 58.1366 64.6137L58.2381 64.6541C58.2949 64.2209 58.5318 63.8374 58.5806 63.4015C58.6117 63.4163 58.674 63.4446 58.7051 63.458C58.743 63.2132 58.7863 62.971 58.8215 62.7275C58.8581 62.7409 58.9312 62.7665 58.9677 62.7786C59.0151 62.5014 59.0679 62.2256 59.1112 61.9485L59.2601 61.97C59.2506 61.9256 59.2331 61.8381 59.2249 61.7937C59.3644 61.5004 59.474 61.1923 59.5187 60.8694C59.5458 60.8775 59.6013 60.8936 59.6283 60.9017C59.6825 60.6138 59.7447 60.3286 59.7935 60.0407L59.8936 60.1295C60.0371 59.45 60.3011 58.8042 60.5746 58.1678C60.6328 57.9405 60.6896 57.7131 60.7411 57.4844L60.8493 57.5476C60.8967 57.2704 60.9509 56.996 60.9969 56.7202C61.024 56.7228 61.0795 56.7309 61.1065 56.7336C61.158 56.5009 61.2203 56.2708 61.269 56.0367L61.3841 56.0448C61.3854 55.9331 61.3895 55.7124 61.3908 55.6021L61.5099 55.6573C61.5627 55.3774 61.6277 55.1003 61.6819 54.8204C61.713 54.8325 61.7739 54.8567 61.805 54.8702C61.8578 54.5782 61.9174 54.2876 61.9607 53.9943L62.0609 54.0603C62.2071 53.3956 62.6024 52.805 62.6416 52.1148C62.6836 52.1255 62.7702 52.1498 62.8122 52.1619C62.8325 51.917 62.8555 51.6748 62.8785 51.4327L62.9936 51.4972C63.0586 51.2335 63.1357 50.9725 63.2575 50.7303C63.2779 50.5702 63.2982 50.4101 63.3171 50.2514C63.3631 50.2541 63.4552 50.2594 63.5012 50.2621C63.5175 50.028 63.5378 49.7953 63.5567 49.5625C63.5987 49.576 63.6826 49.6015 63.7246 49.615C63.7557 49.3795 63.7882 49.1454 63.8207 48.9113C63.8532 48.9181 63.9168 48.9342 63.9493 48.9409C63.9682 48.6651 64.0386 48.396 64.1997 48.1673C64.2119 48.0476 64.2349 47.8054 64.2471 47.6857C64.2796 47.6951 64.3473 47.7153 64.3798 47.7247C64.4258 47.4879 64.4745 47.2511 64.5192 47.0143C64.549 47.0264 64.6085 47.052 64.6383 47.0654C64.6776 46.7519 64.7493 46.4411 64.8969 46.16C64.9591 45.9501 65.0228 45.7388 65.0796 45.5276L65.1825 45.5343C65.1798 45.4388 65.1744 45.2478 65.1717 45.1522C65.2069 45.1549 65.2786 45.159 65.3138 45.1603C65.372 44.8737 65.4383 44.5885 65.4844 44.3006L65.6035 44.3813C65.6685 44.0544 65.728 43.7247 65.7646 43.3938C65.8092 43.3965 65.9013 43.4005 65.9473 43.4032C65.9649 43.2377 65.9852 43.0736 66.0055 42.9094C66.0502 42.7951 66.1395 42.5636 66.1842 42.4493L66.2438 42.4802C66.3277 41.9461 66.4211 41.412 66.4116 40.8684C66.6404 40.8038 66.8678 40.7312 67.0979 40.6679L67.0492 40.6007C67.2577 40.5267 67.4729 40.4554 67.6584 40.3289C67.7491 40.2441 67.8398 40.158 67.9318 40.0733C68.0861 39.9562 68.2405 39.8365 68.3975 39.7208C68.4841 39.6347 68.5721 39.5513 68.6628 39.4678C68.7725 39.3669 68.8848 39.2674 68.9985 39.1705L68.9444 39.1301ZM66.8665 46.2541L66.8773 46.2784C66.9287 46.3187 67.0343 46.4021 67.0871 46.4425C67.0628 46.4546 67.0154 46.4802 66.991 46.4923C66.8056 46.7264 66.8096 47.0318 66.7717 47.313C66.7284 47.2995 66.6418 47.274 66.5984 47.2605C66.5714 47.5 66.5456 47.7408 66.5226 47.983L66.4157 47.9413C66.2966 48.3611 66.1422 48.7728 66.0895 49.2087L65.9757 49.1468C65.9324 49.358 65.8891 49.5679 65.8444 49.7791C65.5642 50.3254 65.4911 50.9631 65.2082 51.5174C65.192 51.6129 65.1581 51.8026 65.1419 51.8982C65.0052 52.1699 64.905 52.4592 64.7656 52.731C64.7141 52.9839 64.664 53.2369 64.6166 53.4925C64.5855 53.4817 64.5219 53.4615 64.4894 53.4521C64.4867 53.5503 64.4813 53.7468 64.4786 53.845C64.4001 54.0064 64.327 54.1719 64.2552 54.3374C64.2336 54.4679 64.2119 54.5984 64.1889 54.7303C64.0075 54.9092 63.9994 55.1702 63.9574 55.4057C63.9209 55.3909 63.8478 55.3613 63.8099 55.3465C63.7841 55.699 63.7665 56.0555 63.8112 56.408C65.8444 56.4497 67.8777 56.4336 69.9109 56.4161L69.8974 56.3017C70.0368 56.2963 70.1776 56.291 70.3197 56.2869C70.3278 56.0273 70.3305 55.7663 70.3305 55.5066C70.2981 55.5133 70.2344 55.5241 70.2019 55.5295C70.1221 55.0209 69.8879 54.546 69.8703 54.0266C69.8283 54.0307 69.7457 54.0374 69.7038 54.0414C69.6794 53.8033 69.6578 53.5651 69.6361 53.3297C69.6023 53.3432 69.5359 53.3727 69.5021 53.3862C69.4534 53.1144 69.4331 52.8225 69.253 52.5978C69.2314 52.4579 69.211 52.3179 69.1921 52.178C68.9931 51.8888 68.9538 51.543 68.9308 51.2026C68.8848 51.2053 68.7928 51.2107 68.7481 51.2134C68.7494 51.1003 68.7535 50.8743 68.7549 50.7613C68.7142 50.7667 68.633 50.7774 68.5924 50.7828C68.5437 50.464 68.4855 50.1464 68.4313 49.8289L68.2946 49.8706C68.2878 49.6984 68.2797 49.5275 68.2743 49.358C68.2107 49.2315 68.1498 49.1064 68.0888 48.9813C68.0577 48.8131 68.0293 48.6449 68.0036 48.4768L67.8953 48.5252C67.8723 48.2911 67.8506 48.057 67.8316 47.8242C67.7843 47.8121 67.6868 47.7893 67.6381 47.7785C67.6137 47.5202 67.5893 47.2619 67.5677 47.0049C67.5244 47.0089 67.4364 47.017 67.3931 47.021C67.3389 46.7466 67.2766 46.4748 67.2062 46.207C67.1223 46.2178 66.9517 46.242 66.8665 46.2541Z" fill="#0F0B0F"/>
<path d="M91.2246 38.837C91.4439 38.8316 91.6646 38.8275 91.8852 38.8275L91.8609 38.7118C92.7814 38.6486 93.7046 38.6446 94.6265 38.654C95.2207 38.6351 95.7825 38.8854 96.3808 38.8464C96.5609 38.9163 96.7423 38.9823 96.9236 39.0563C97.1808 39.0711 97.4394 39.0845 97.6993 39.0926L97.6465 39.2096C98.0756 39.2782 98.5048 39.3415 98.9406 39.3644L98.8418 39.4854C99.1708 39.5298 99.4984 39.5904 99.8273 39.6469C99.8476 39.8675 99.8666 40.0882 99.8882 40.3115C99.9356 40.3088 100.029 40.3035 100.076 40.3008C100.091 40.5497 100.109 40.7986 100.126 41.0475C100.201 41.3152 100.255 41.587 100.328 41.8561C100.332 42.4413 100.553 43.001 100.539 43.589C100.512 44.4285 100.756 45.2788 100.545 46.1103C100.086 46.2004 99.6107 46.2327 99.1613 46.0861C99.1518 45.9273 99.1437 45.7686 99.1369 45.6098C99.0841 45.5412 98.9812 45.4039 98.9298 45.3353C98.9149 45.1645 98.9027 44.9949 98.8919 44.8254L98.7592 44.9034C98.7213 44.668 98.6794 44.4339 98.6415 44.1998C98.609 44.2065 98.5427 44.22 98.5102 44.2254C98.4438 43.9939 98.3518 43.7706 98.2029 43.5809C98.2015 43.5526 98.2002 43.4975 98.1988 43.4692C98.0892 43.3091 97.9863 43.145 97.8888 42.9795L97.8455 43.0199C97.7575 42.853 97.6668 42.6902 97.5639 42.5342C97.4827 42.4386 97.4042 42.3431 97.3257 42.2462C97.1768 42.148 97.0292 42.0444 96.8817 41.9476C96.8614 41.8736 96.8181 41.7269 96.7978 41.6543C96.7341 41.6623 96.6069 41.6771 96.5433 41.6852L96.6082 41.5157C96.4485 41.4659 96.2888 41.4175 96.1317 41.3704L96.1994 41.2493C96.0031 41.1901 95.8082 41.1269 95.6146 41.069L95.6404 41.0058C95.1882 40.8376 94.7212 40.699 94.2366 40.6842L94.3205 40.5497C93.7371 40.5443 93.1523 40.5228 92.5702 40.5618C92.2359 40.7071 91.8758 40.7717 91.5225 40.8457C91.3695 40.9062 91.2165 40.9641 91.0636 41.0206V41.0717C90.7725 41.1834 90.5085 41.3475 90.2473 41.5116C89.9156 41.8251 89.6083 42.1615 89.3146 42.5086C89.1576 42.9284 88.9396 43.3212 88.784 43.741C88.5024 44.7272 88.5308 45.7712 88.7488 46.7655C88.7785 46.7642 88.8354 46.7628 88.8638 46.7615C88.8977 46.9956 88.9396 47.231 88.9816 47.4651L89.0953 47.3831C89.2117 47.8069 89.4798 48.1621 89.7099 48.532L89.7627 48.5159C89.9711 48.8227 90.1958 49.124 90.4828 49.3662L90.4679 49.4604L90.6358 49.4268L90.6182 49.5317C90.6778 49.5801 90.7982 49.6783 90.8578 49.7268C90.8835 49.7227 90.9377 49.716 90.9634 49.712C91.0568 49.8506 91.18 49.9582 91.3329 50.0349L91.2842 50.0874C91.9367 50.4977 92.5797 50.9242 93.2538 51.2996C93.3919 51.3803 93.534 51.4624 93.6748 51.5444C93.9225 51.6884 94.1797 51.8162 94.4518 51.9091L94.3693 52.0113C94.5385 52.053 94.7077 52.0947 94.8782 52.1364L94.8376 52.3059C94.8864 52.2992 94.9852 52.2844 95.0339 52.2777C95.2397 52.4055 95.459 52.5105 95.6796 52.6154C95.8123 52.6975 95.9463 52.7782 96.0844 52.8576L96.0072 52.9356C96.1642 52.9867 96.3213 53.0392 96.481 53.0917L96.4458 53.1684C96.6164 53.276 96.7842 53.3904 96.9534 53.5047C97.0996 53.607 97.2553 53.7025 97.4123 53.794C97.411 53.8195 97.4083 53.8707 97.4069 53.8962C97.5599 53.9945 97.7128 54.0994 97.8645 54.203C97.9484 54.3039 98.0337 54.4048 98.119 54.5084C98.2218 54.5918 98.3274 54.6779 98.4317 54.7654C98.5589 54.9174 98.6834 55.0721 98.8066 55.2309L98.8567 55.1878C98.9339 55.3224 99.0164 55.4596 99.099 55.5928C99.2127 55.7139 99.3278 55.8336 99.4456 55.9534L99.4104 55.9722C99.5376 56.1283 99.6418 56.2978 99.7434 56.4741L99.7935 56.4081C99.8625 56.5804 99.9369 56.7539 100.059 56.9006C100.179 57.1279 100.288 57.3634 100.397 57.5988C100.625 58.0415 100.852 58.5003 100.848 59.0129C100.893 59.0075 100.985 58.9967 101.031 58.9913C101.043 59.2806 101.059 59.5685 101.086 59.8578C101.148 60.0704 101.182 60.291 101.201 60.513L101.292 60.478C101.273 61.2153 101.35 61.958 101.215 62.6872C101.181 62.8742 101.136 63.0585 101.086 63.2415C101.071 63.4554 101.061 63.6667 101.054 63.8819L100.94 63.8093C100.889 64.1914 100.844 64.591 100.644 64.93C100.588 65.1157 100.537 65.3027 100.491 65.4924L100.346 65.4749C100.35 65.5207 100.361 65.6122 100.366 65.6579C100.236 65.8678 100.133 66.0898 100.03 66.3131C99.9437 66.4382 99.8598 66.5661 99.7786 66.6952L99.7028 66.6414C99.65 66.7638 99.5972 66.8876 99.5457 67.0127C99.2953 67.2711 99.0435 67.5307 98.812 67.8065C98.6604 67.9424 98.5088 68.077 98.3586 68.2115L98.3572 68.2451C98.1041 68.4133 97.8631 68.5963 97.6235 68.7806C97.4908 68.8708 97.3595 68.9622 97.2309 69.0551C96.8032 69.2636 96.3795 69.4775 95.9639 69.7076C95.8312 69.7453 95.6999 69.783 95.57 69.822C95.3236 69.9283 95.065 70.013 94.7984 70.048L94.8417 70.1395C94.2555 70.2068 93.6721 70.3063 93.0819 70.3373C93.0873 70.3709 93.0981 70.4355 93.1036 70.4691C92.7029 70.4624 92.3022 70.4745 91.9042 70.5176C90.9688 70.6064 90.0388 70.4032 89.1034 70.4732C89.1088 70.4368 89.121 70.3642 89.1264 70.3278C88.2966 70.3225 87.4912 70.1341 86.7088 69.8758L86.7074 69.783C86.5477 69.7722 86.3906 69.7614 86.2336 69.7493C86.0793 69.5448 85.8059 69.5394 85.5838 69.4695L85.6542 69.378C85.1723 69.273 84.7486 69.0147 84.329 68.7699C84.2153 68.6811 84.1029 68.5963 83.9892 68.5129C83.9364 68.3797 83.885 68.2465 83.8362 68.1133L83.728 68.1563C83.7198 68.0756 83.7036 67.9142 83.6955 67.8334C83.5696 67.5832 83.4856 67.3168 83.4301 67.045L83.3354 67.1069C83.3124 66.8472 83.288 66.5862 83.2298 66.3333C83.2041 66.0709 83.1851 65.8086 83.1716 65.5476L83.0443 65.6391C83.0132 64.848 82.8548 64.0663 82.9103 63.2711L82.7804 63.3357C82.7844 62.7316 82.7763 62.1289 82.7682 61.5261L82.8535 61.5369C83.0362 61.1575 83.4911 61.144 83.8593 61.1427C84.0285 61.3149 84.1977 61.4911 84.3601 61.6728C84.421 62.0293 84.5483 62.371 84.7026 62.6993C84.7879 62.885 84.8691 63.072 84.9517 63.2604C85.1466 63.633 85.3361 64.0084 85.5162 64.3878L85.6502 64.3569C85.638 64.4201 85.6136 64.5479 85.6014 64.6125L85.703 64.6381C85.7977 64.778 85.8952 64.9179 85.9954 65.0551C86.0509 65.1789 86.1064 65.3027 86.1632 65.4278C86.4285 65.7117 86.683 66.005 86.9145 66.3185C87.0052 66.4086 87.0986 66.5001 87.1934 66.5903C87.4059 66.8217 87.6279 67.0464 87.8702 67.2495C88.0489 67.3868 88.2303 67.5253 88.4063 67.6706C88.5471 67.75 88.6892 67.8308 88.8313 67.9142C89.0533 68.0474 89.297 68.1375 89.5515 68.1927C89.5407 68.225 89.519 68.2909 89.5082 68.3232C89.7478 68.3514 89.9887 68.377 90.2297 68.4039C90.2202 68.4429 90.1999 68.5209 90.1891 68.56C91.1123 68.5963 92.0369 68.599 92.9601 68.5613C92.9492 68.525 92.9303 68.4523 92.9208 68.4174C93.2078 68.381 93.4948 68.338 93.7831 68.299L93.7046 68.1927C93.9862 68.1146 94.2555 67.9989 94.5127 67.8617C94.7699 67.6612 95.019 67.4527 95.2816 67.2589C95.5524 66.9455 95.8502 66.6333 95.9409 66.2162L96.0465 66.301C96.0979 66.1032 96.152 65.9068 96.2021 65.709L96.3131 65.7427C96.3158 65.6054 96.3186 65.3296 96.3213 65.191C96.3497 65.1937 96.4092 65.1964 96.4377 65.1991C96.6651 64.2654 96.5351 63.2994 96.5555 62.3495C96.5067 62.3509 96.4065 62.3509 96.3578 62.3522C96.3402 62.0979 96.3199 61.8436 96.2982 61.592C96.1683 61.362 96.083 61.1117 96.0289 60.8547C96.0086 60.8601 95.9679 60.8709 95.9476 60.8749C95.88 60.7041 95.8014 60.5386 95.7107 60.3812C95.5226 60.0233 95.2911 59.6923 95.0488 59.3694L94.9392 59.4178C94.931 59.3438 94.9161 59.1945 94.9094 59.1205C94.8512 59.1272 94.7347 59.1407 94.6779 59.1474C94.6792 59.0815 94.682 58.9483 94.6833 58.8824C94.6156 58.8783 94.4803 58.8716 94.4126 58.8676C94.4193 58.8084 94.4329 58.6913 94.4396 58.6335C94.3652 58.6267 94.2176 58.6133 94.1432 58.6079L94.1852 58.4989C94.0254 58.3805 93.867 58.2621 93.7087 58.1464C93.5801 58.0536 93.4487 57.9634 93.3201 57.876L93.3621 57.8235C93.197 57.732 93.0359 57.6419 92.8761 57.5477C92.6771 57.4253 92.4836 57.2934 92.3022 57.1508C92.1357 57.0795 91.9705 57.0095 91.8054 56.945L91.8798 56.8817C91.6944 56.7929 91.5089 56.7028 91.3492 56.575C91.3221 56.5736 91.268 56.5723 91.2395 56.5709C91.0649 56.4498 90.8876 56.3341 90.713 56.2171C90.5424 56.1417 90.3718 56.0664 90.2053 55.9911C90.2121 55.9507 90.2243 55.8727 90.231 55.8323C90.1214 55.8148 89.9007 55.7812 89.7897 55.7637L89.8479 55.6722C89.6571 55.5619 89.4703 55.4502 89.2808 55.3412C89.1291 55.2295 88.9762 55.1219 88.8259 55.0129C88.7014 54.9349 88.5782 54.8569 88.455 54.7815L88.5051 54.7237C88.3792 54.647 88.2547 54.5689 88.1315 54.4923C87.9068 54.2676 87.6753 54.0496 87.4411 53.837C87.3463 53.7429 87.2516 53.65 87.1568 53.5572C86.947 53.3231 86.7223 53.1038 86.4962 52.8872C86.3094 52.6611 86.124 52.4351 85.9439 52.2064C85.9047 52.1472 85.8248 52.0288 85.7842 51.9696C85.6258 51.7301 85.4674 51.4906 85.328 51.2404C85.2481 51.1099 85.171 50.978 85.0979 50.8475C84.9639 50.5757 84.865 50.2892 84.7229 50.0241C84.6945 49.8976 84.6688 49.7712 84.6457 49.6461C84.4752 49.2707 84.4102 48.8603 84.4021 48.4527L84.2762 48.5616C84.2315 47.8472 84.2315 47.1301 84.2396 46.4157C84.2207 45.7847 84.528 45.2075 84.5632 44.5819L84.6715 44.6128C84.6742 44.4204 84.6782 44.228 84.6823 44.037L84.815 44.0881C84.8677 43.8433 84.9233 43.5997 84.9693 43.3549C85.0004 43.3616 85.064 43.3751 85.0952 43.3818C85.2035 43.0723 85.3632 42.7844 85.5121 42.4938C85.573 42.444 85.6935 42.3458 85.7544 42.296C85.8031 42.1548 85.8532 42.0121 85.9047 41.8722L85.9845 41.9355C86.1334 41.7108 86.3108 41.5049 86.5016 41.3125C86.6113 41.2076 86.7223 41.104 86.8333 40.9977C86.9375 40.8968 87.0431 40.7959 87.146 40.6923L87.188 40.7179C87.2719 40.6506 87.4397 40.516 87.5237 40.4488C87.5277 40.4245 87.5332 40.3775 87.5359 40.3532C87.7294 40.2631 87.9244 40.173 88.1071 40.0626C88.4767 39.8299 88.8638 39.6133 89.2943 39.5124C89.2889 39.476 89.278 39.402 89.274 39.3657C89.5068 39.3428 89.7397 39.32 89.9752 39.2998C89.9698 39.2527 89.9562 39.1599 89.9508 39.1128C90.2013 39.0926 90.4517 39.0737 90.7048 39.0589C90.8767 38.9836 91.0514 38.911 91.2246 38.837Z" fill="#0F0B0F"/>
<path d="M163.172 38.6848C164.191 38.6445 165.212 38.6418 166.232 38.662C166.503 38.6606 166.775 38.7064 167.031 38.8032C167.809 38.7575 168.535 39.0952 169.309 39.1059L169.243 39.2203C169.531 39.2661 169.818 39.3172 170.112 39.3562C170.098 39.3871 170.073 39.449 170.059 39.48C170.334 39.5055 170.61 39.5567 170.847 39.7114C170.971 39.7585 171.099 39.8056 171.229 39.85C171.418 39.9159 171.606 39.9899 171.792 40.0773C171.965 40.2065 172.172 40.2738 172.382 40.3316C172.381 40.3599 172.377 40.4177 172.374 40.4473C172.754 40.5778 173.093 40.8012 173.449 40.9868C173.599 41.1187 173.755 41.2479 173.906 41.3837C174.039 41.4322 174.174 41.4793 174.312 41.5277L174.245 41.6111C174.358 41.6878 174.475 41.7658 174.594 41.8452C174.729 41.9663 174.866 42.0887 175.005 42.2125C175.103 42.3094 175.203 42.4049 175.309 42.4991C175.403 42.5906 175.501 42.6821 175.6 42.7736C175.796 43.0157 176.021 43.235 176.254 43.4463C176.352 43.5956 176.473 43.7275 176.612 43.8459C176.622 43.9051 176.643 44.0208 176.653 44.0786C176.691 44.0719 176.765 44.0557 176.803 44.049C176.938 44.4352 177.257 44.715 177.441 45.0769C177.53 45.2303 177.617 45.3864 177.703 45.5451C177.72 45.5371 177.753 45.5196 177.77 45.5101C177.829 45.685 177.909 45.8546 178.011 46.0133C178.149 46.2569 178.272 46.5098 178.375 46.7721C178.398 46.7695 178.445 46.7627 178.47 46.76C178.505 47.017 178.558 47.2821 178.755 47.4704C178.798 47.644 178.843 47.8175 178.889 47.9924C178.912 47.9884 178.958 47.9803 178.98 47.975C179.098 48.3813 179.219 48.7876 179.307 49.202C179.337 49.1979 179.395 49.1885 179.425 49.1831C179.46 49.5424 179.519 49.8989 179.567 50.2568C179.6 50.2487 179.666 50.2326 179.699 50.2245C179.704 50.6927 179.818 51.1515 179.864 51.617L179.961 51.5766C179.953 52.0179 179.973 52.4619 180.068 52.8952C180.172 53.7374 180.103 54.589 180.125 55.4353C180.158 56.2291 179.906 56.9987 179.956 57.7938C179.93 57.7858 179.877 57.7683 179.852 57.7602C179.82 57.9351 179.787 58.11 179.749 58.2836C179.72 58.5674 179.7 58.8527 179.681 59.1379C179.634 59.1298 179.538 59.1137 179.49 59.1043C179.471 59.3222 179.458 59.5429 179.439 59.7622C179.284 60.0245 179.217 60.3205 179.14 60.6098L179.037 60.6004C179.029 60.786 179.023 60.9731 179.02 61.1601L178.885 61.1157C178.839 61.3188 178.789 61.522 178.743 61.7278C178.708 61.7157 178.636 61.6929 178.599 61.6821C178.552 61.9081 178.507 62.1368 178.465 62.3656C178.442 62.3575 178.395 62.344 178.372 62.3373C178.277 62.5068 178.187 62.679 178.088 62.8472C178.093 62.8943 178.103 62.9898 178.108 63.0369L177.958 63.01C177.893 63.1997 177.827 63.3881 177.768 63.5805C177.741 63.5738 177.688 63.563 177.661 63.5563C177.484 63.8711 177.297 64.1805 177.096 64.4792C176.884 64.7026 176.675 64.9326 176.546 65.2152L176.5 65.1721C176.293 65.4587 176.072 65.7345 175.862 66.017L175.77 65.9646C175.739 66.0453 175.677 66.204 175.646 66.2848L175.562 66.2323C175.448 66.3507 175.336 66.4677 175.223 66.5848L175.257 66.6184C174.943 66.8176 174.671 67.0732 174.41 67.3342C174.302 67.3826 174.195 67.4324 174.092 67.4822C173.967 67.6033 173.847 67.7244 173.726 67.8468C173.38 68.0419 173.045 68.2558 172.72 68.4832C172.404 68.6648 172.081 68.8384 171.744 68.9783C171.244 69.2057 170.76 69.4949 170.209 69.5864C170.213 69.6255 170.219 69.7035 170.222 69.7425C169.995 69.7573 169.768 69.7721 169.546 69.7856L169.535 69.9053C169.495 69.9093 169.412 69.9174 169.37 69.9214C169.152 69.9806 168.925 70.0129 168.705 70.0466L168.776 70.1475C168.293 70.1919 167.815 70.2672 167.333 70.3009L167.425 70.4314C166.801 70.4583 166.177 70.4663 165.557 70.5228C164.479 70.5941 163.407 70.4287 162.33 70.4488L162.418 70.3076C161.883 70.2497 161.303 70.3022 160.816 70.0425C160.564 70.0183 160.317 70.0008 160.068 69.986C160.066 69.9362 160.065 69.8353 160.063 69.7856C159.829 69.7761 159.598 69.7667 159.369 69.7573L159.423 69.6281C159.163 69.5757 158.899 69.5259 158.684 69.3671C158.392 69.281 158.109 69.1734 157.835 69.0429C157.649 68.9595 157.467 68.868 157.291 68.7725C157.1 68.6581 156.896 68.5706 156.694 68.4899C156.7 68.4549 156.71 68.3863 156.714 68.3527C156.622 68.3312 156.437 68.2894 156.345 68.2679C156.173 68.0715 155.939 67.9517 155.711 67.8347L155.764 67.758C155.633 67.7042 155.503 67.6504 155.376 67.5979C155.005 67.2387 154.603 66.9144 154.225 66.5646C154.124 66.4785 154.025 66.3924 153.93 66.305C153.624 65.9417 153.309 65.5878 152.982 65.2461C152.84 65.0725 152.702 64.8963 152.564 64.7227C152.461 64.564 152.362 64.4066 152.257 64.2532C151.932 63.7823 151.638 63.2912 151.338 62.8042C151.246 62.6279 151.156 62.4517 151.079 62.2714C151.006 62.1422 150.936 62.0131 150.867 61.8866C150.876 61.8368 150.894 61.7386 150.902 61.6902L150.78 61.705C150.653 61.3013 150.548 60.8883 150.362 60.5075C150.274 60.2156 150.211 59.9182 150.179 59.6169L150.073 59.7137C150.021 59.3626 149.95 59.0141 149.911 58.663L149.804 58.7289C149.789 58.5217 149.781 58.3172 149.769 58.1113C149.586 57.2288 149.497 56.3273 149.525 55.4286C149.509 54.176 149.509 52.914 149.77 51.6829C149.784 51.4744 149.793 51.2658 149.809 51.0587L149.911 51.1421C149.947 50.7398 150.034 50.3442 150.092 49.946L150.198 50.0442C150.203 49.7213 150.289 49.4065 150.436 49.1186C150.497 48.8656 150.566 48.6154 150.624 48.3611H150.696C150.741 48.2158 150.788 48.0705 150.839 47.9279C150.917 47.7261 150.999 47.5229 151.151 47.3641C151.194 47.1892 151.24 47.0157 151.283 46.8408L151.401 46.9175C151.447 46.721 151.499 46.5246 151.55 46.3295L151.654 46.3726C151.686 46.2891 151.748 46.1223 151.779 46.0389C151.848 45.9084 151.92 45.7779 151.991 45.6474L152.082 45.7133C152.127 45.5492 152.173 45.3864 152.22 45.2236L152.316 45.2881C152.4 45.128 152.491 44.9693 152.583 44.8132C152.699 44.6652 152.816 44.5199 152.931 44.3706C153.026 44.2549 153.123 44.1392 153.221 44.0248C153.298 43.9145 153.374 43.8028 153.451 43.6911C153.606 43.5297 153.766 43.3696 153.93 43.2162C154.015 43.1153 154.105 43.0144 154.195 42.9162C154.325 42.7803 154.459 42.6471 154.595 42.5139C154.692 42.4412 154.791 42.3686 154.892 42.2973C155.162 42.0376 155.454 41.8022 155.774 41.603L155.707 41.5156C155.839 41.4739 155.97 41.4322 156.104 41.3891C156.247 41.2653 156.392 41.1456 156.556 41.0433L156.529 40.999C156.766 40.8913 157.003 40.7783 157.244 40.6747L157.194 40.6021C157.36 40.5281 157.565 40.4944 157.688 40.3424C157.839 40.2832 157.999 40.2442 158.166 40.2267C158.163 40.1877 158.157 40.1096 158.155 40.0706C158.769 39.9845 159.27 39.5647 159.889 39.4867C160.043 39.375 160.225 39.3226 160.406 39.2634C160.567 39.2486 160.731 39.2338 160.897 39.219C160.896 39.1853 160.893 39.1181 160.892 39.0844C161.092 39.0777 161.293 39.071 161.497 39.0629C161.677 38.9902 161.86 38.9243 162.044 38.8517C162.428 38.8355 162.814 38.8194 163.203 38.8126L163.172 38.6848ZM163.414 40.5415C163.43 40.5778 163.461 40.6491 163.476 40.6855C163.023 40.7043 162.554 40.7218 162.14 40.9276C162.047 40.9451 161.857 40.9788 161.762 40.9963C161.542 41.0999 161.316 41.1913 161.094 41.2842C160.899 41.3891 160.689 41.4685 160.487 41.5479C160.495 41.5761 160.514 41.634 160.522 41.6636C160.386 41.7066 160.25 41.7497 160.118 41.7927C159.795 42.0417 159.494 42.3161 159.201 42.596C159.158 42.5946 159.071 42.5906 159.028 42.5892C159.021 42.6377 159.005 42.7332 158.998 42.7816C158.833 42.9162 158.675 43.0561 158.53 43.2068C158.442 43.301 158.356 43.3951 158.271 43.4907C158.168 43.6292 158.078 43.7746 157.998 43.9252C157.964 43.9252 157.895 43.9252 157.861 43.9252C157.864 43.9737 157.871 44.0719 157.875 44.1203C157.716 44.3073 157.566 44.497 157.409 44.6827C157.383 44.8334 157.362 44.9854 157.341 45.1375C157.292 45.1307 157.194 45.1186 157.144 45.1119C157.134 45.2155 157.112 45.4227 157.103 45.5263C157.065 45.5223 156.992 45.5169 156.954 45.5128C156.903 45.7093 156.85 45.9044 156.805 46.1021L156.724 46.0873C156.56 46.4775 156.425 46.8798 156.381 47.3036C156.338 47.2928 156.252 47.2726 156.208 47.2632C156.191 47.5431 156.174 47.8229 156.161 48.1041C156.126 48.0934 156.055 48.0718 156.019 48.0611C155.967 48.4418 155.901 48.8226 155.862 49.206L155.749 49.1603C155.751 49.6339 155.766 50.1209 155.596 50.573C155.56 50.7976 155.515 51.0223 155.507 51.251C155.465 52.8669 155.47 54.4841 155.51 56.0999C155.568 56.404 155.603 56.7135 155.659 57.0202C155.759 57.3619 155.748 57.7212 155.752 58.075L155.856 58.04C155.898 58.4612 155.977 58.8782 156.023 59.2994L156.159 59.228C156.172 59.446 156.188 59.664 156.21 59.8846C156.465 60.2331 156.417 60.6905 156.583 61.078C156.636 61.2341 156.683 61.3928 156.729 61.5543L156.785 61.5381C156.824 61.7991 156.885 62.0628 157.083 62.2579C157.11 62.4315 157.137 62.605 157.167 62.7813C157.203 62.7732 157.275 62.7571 157.311 62.749C157.421 63.0652 157.551 63.376 157.689 63.6841L157.758 63.6747C157.808 63.8294 157.861 63.9841 157.917 64.1402L158.006 64.0796C158.08 64.2962 158.125 64.5438 158.333 64.6824C158.424 64.8344 158.516 64.9878 158.611 65.1425C158.8 65.3753 158.997 65.604 159.173 65.8502C159.205 65.8435 159.269 65.83 159.3 65.8219L159.278 65.9551C159.438 66.0776 159.598 66.1987 159.762 66.3197C159.76 66.3682 159.76 66.4664 159.759 66.5148L159.896 66.4839C160.168 66.8041 160.466 67.1243 160.878 67.2615C160.877 67.2871 160.874 67.3396 160.873 67.3651C161.023 67.4324 161.172 67.5051 161.324 67.5818C161.458 67.6625 161.593 67.7459 161.727 67.8333C162.068 67.9908 162.423 68.1092 162.791 68.1899C162.779 68.2235 162.755 68.2894 162.742 68.3217C163.084 68.3567 163.429 68.3957 163.774 68.4253L163.682 68.5679C164.263 68.5478 164.842 68.6123 165.423 68.6433C165.994 68.5962 166.567 68.5531 167.143 68.5437C167.126 68.5074 167.089 68.4321 167.072 68.3957C167.36 68.3675 167.65 68.3338 167.941 68.3042C167.927 68.272 167.899 68.2047 167.885 68.171C168.127 68.1199 168.371 68.0634 168.617 68.0109L168.581 67.9262C168.869 67.8145 169.153 67.6907 169.445 67.5791L169.39 67.5051C169.553 67.4324 169.717 67.3544 169.863 67.2467C170.102 67.0342 170.353 66.8337 170.61 66.64C170.701 66.5512 170.795 66.4664 170.893 66.3843C171.088 66.1341 171.29 65.8879 171.489 65.6403C171.696 65.3658 171.914 65.0981 172.109 64.8129C172.111 64.7873 172.118 64.7348 172.122 64.7079C172.386 64.3716 172.582 63.9895 172.696 63.5778L172.784 63.6329C172.829 63.3666 172.917 63.1109 173.051 62.8755C173.055 62.8122 173.062 62.6844 173.064 62.6212L173.171 62.6387C173.24 62.3117 173.323 61.9875 173.392 61.6606C173.447 61.5556 173.503 61.4507 173.561 61.3471C173.581 61.0888 173.604 60.8304 173.646 60.5762C173.737 60.447 173.763 60.2882 173.811 60.1416C173.863 59.7958 173.876 59.4447 173.883 59.0962L174.001 59.1581C173.974 58.4464 174.169 57.7508 174.142 57.039C174.162 56.0973 174.15 55.1568 174.144 54.215C174.166 53.5087 173.979 52.8171 174 52.1108L173.882 52.1659C173.87 51.8632 173.859 51.5632 173.843 51.2618C173.802 51.095 173.768 50.9268 173.74 50.76C173.711 50.7707 173.657 50.7936 173.63 50.8044C173.619 50.2891 173.493 49.7859 173.454 49.2733L173.347 49.3379C173.275 48.5656 172.806 47.8996 172.772 47.1193C172.723 47.1327 172.627 47.1569 172.578 47.1704C172.57 47.0291 172.553 46.7479 172.543 46.6067C172.512 46.6147 172.447 46.6309 172.416 46.639C172.316 46.3551 172.203 46.0793 172.088 45.8034L172.007 45.8142C171.952 45.6514 171.892 45.49 171.838 45.3299C171.73 45.1751 171.624 45.0191 171.535 44.8563L171.48 44.8926C171.342 44.4876 171.076 44.1513 170.778 43.8512C170.758 43.7719 170.714 43.6131 170.694 43.5324C170.64 43.5364 170.53 43.5458 170.476 43.5499C170.48 43.488 170.49 43.3629 170.494 43.301C170.444 43.2915 170.345 43.2714 170.295 43.2619C170.155 43.0991 170.028 42.931 169.893 42.7695C169.769 42.6928 169.65 42.6108 169.537 42.5273C169.541 42.491 169.547 42.4197 169.551 42.3847C169.473 42.3592 169.317 42.3094 169.239 42.2838C169.117 42.1762 168.991 42.0753 168.861 41.9825L168.846 41.8735C168.81 41.8735 168.735 41.8748 168.699 41.8748C168.543 41.7524 168.367 41.6622 168.187 41.5896C168.19 41.5492 168.198 41.4698 168.2 41.4295C168.098 41.4241 167.892 41.4106 167.788 41.4039C167.796 41.3676 167.811 41.2949 167.817 41.2586C167.556 41.2183 167.307 41.1402 167.072 41.0245C166.882 40.9613 166.701 40.8994 166.518 40.8335C166.123 40.7366 165.718 40.6909 165.313 40.6828L165.398 40.5469C164.736 40.524 164.074 40.5469 163.414 40.5415Z" fill="#0F0B0F"/>
<path d="M103.409 39.3305C107.204 39.2982 111.001 39.3843 114.795 39.2942C114.979 39.2996 115.165 39.313 115.35 39.3332C115.383 39.7315 115.429 40.1364 115.349 40.5333C115.266 40.5548 115.101 40.5966 115.017 40.6167C115.022 40.6423 115.033 40.6907 115.039 40.715C114.565 40.7446 114.095 40.8091 113.623 40.8468L113.665 40.9652C113.433 40.9706 113.203 40.976 112.976 40.984C112.981 41.0163 112.993 41.0836 113 41.1172C112.915 41.1495 112.747 41.2128 112.662 41.245L112.727 41.3231C112.537 41.3769 112.429 41.5007 112.4 41.6944L112.304 41.6204C112.258 41.872 112.204 42.1209 112.155 42.3725L112.055 42.3254C112.038 42.5299 112.027 42.7358 112.012 42.9403C111.95 43.243 111.891 43.5498 111.904 43.8619C111.898 51.3222 111.885 58.7839 111.912 66.2443L112.005 66.2214C112.02 66.4811 112.073 66.7367 112.144 66.9883C112.2 67.178 112.218 67.4027 112.396 67.5305C112.448 67.6314 112.501 67.7337 112.553 67.8373C112.674 67.9247 112.796 68.0135 112.919 68.1037C113.077 68.1252 113.237 68.1454 113.398 68.1669C113.383 68.2032 113.351 68.2772 113.334 68.3136C113.72 68.3378 114.105 68.3687 114.493 68.3808C114.477 68.4198 114.444 68.4965 114.428 68.5342C114.734 68.5436 115.04 68.5598 115.349 68.5732C115.396 69.0212 115.423 69.4787 115.301 69.92C111.656 69.8419 108.008 69.8043 104.362 69.9119C104.071 69.9173 103.777 69.9402 103.489 69.8944C103.197 69.6119 103.202 69.1854 103.216 68.8073L103.354 68.8679C103.415 68.732 103.477 68.5961 103.54 68.4615C104.167 68.4171 104.791 68.3512 105.418 68.3055C105.406 68.2759 105.38 68.2167 105.367 68.1871C105.826 68.1548 106.195 67.8494 106.378 67.4431L106.46 67.4794C106.559 67.0663 106.598 66.6425 106.613 66.2201L106.753 66.3035C106.724 65.5474 106.789 64.7953 106.841 64.0445C106.841 57.7641 106.842 51.4837 106.841 45.2033C106.802 44.5844 106.732 43.9668 106.764 43.3453C106.73 43.3547 106.662 43.3735 106.628 43.3816C106.624 42.834 106.582 42.2877 106.475 41.7496C106.425 41.7536 106.326 41.7617 106.278 41.7657L106.332 41.576C106.225 41.467 106.121 41.3594 106.018 41.2491C105.84 41.1576 105.666 41.0675 105.492 40.9733C105.265 40.9625 105.039 40.9531 104.814 40.945L104.893 40.836C104.415 40.7903 103.94 40.7217 103.461 40.6948C103.467 40.6329 103.481 40.5078 103.488 40.4459C103.419 40.4445 103.282 40.4418 103.214 40.4391C103.195 40.057 103.271 39.6857 103.409 39.3305Z" fill="#0F0B0F"/>
<path d="M117.58 39.3804C117.73 39.3427 117.883 39.3037 118.036 39.266C120.701 39.4261 123.379 39.3064 126.049 39.3185C126.051 39.4046 126.054 39.5754 126.055 39.6602L126.208 39.5889C126.263 39.784 126.326 39.9791 126.384 40.1768C126.426 40.1768 126.51 40.1768 126.552 40.1768L126.512 40.341C126.622 40.5024 126.728 40.6679 126.827 40.8388L126.864 40.8159C126.95 40.9774 127.053 41.1321 127.154 41.2882C127.23 41.4227 127.308 41.5599 127.411 41.6824C127.536 41.8492 127.652 42.0241 127.756 42.2071L127.832 42.1438C127.884 42.304 127.937 42.4641 127.993 42.6242L128.119 42.5475C128.172 42.6995 128.226 42.8529 128.282 43.0063L128.363 42.9592C128.395 43.0143 128.46 43.1233 128.494 43.1771C128.669 43.4085 128.845 43.64 129.025 43.8687C129.087 43.9709 129.149 44.0759 129.213 44.1808C129.389 44.3732 129.556 44.5764 129.723 44.7782C129.783 44.8818 129.845 44.9867 129.909 45.0903C130.016 45.198 130.117 45.3123 130.213 45.4334L130.235 45.3971C130.342 45.5558 130.444 45.7173 130.552 45.8787L130.534 45.9191C130.668 46.0361 130.805 46.1559 130.94 46.2743C130.992 46.3981 131.046 46.5218 131.1 46.6456L131.192 46.5985C131.323 46.8004 131.459 47.0008 131.596 47.1999C131.688 47.2955 131.781 47.391 131.877 47.4865C131.966 47.5982 132.059 47.7085 132.156 47.8175C132.236 47.9238 132.318 48.0287 132.402 48.135C132.622 48.3705 132.823 48.6207 133.018 48.8777C133.28 49.14 133.523 49.4226 133.728 49.7361L133.844 49.6688C133.844 49.7441 133.844 49.8935 133.843 49.9688C133.887 49.9702 133.974 49.9728 134.017 49.9742C134.215 50.246 134.44 50.4949 134.675 50.7357C134.759 50.8501 134.844 50.9658 134.928 51.0828C135.024 51.181 135.119 51.2833 135.215 51.3855C135.364 51.5591 135.513 51.734 135.666 51.9076C135.75 52.0058 135.835 52.104 135.925 52.2009C136.011 52.287 136.098 52.3744 136.187 52.4619C136.298 52.6153 136.413 52.7673 136.53 52.9193C136.725 53.1319 136.916 53.3499 137.106 53.5692C137.263 53.7306 137.416 53.8961 137.576 54.0562C137.633 54.1585 137.691 54.262 137.752 54.3656C137.871 54.4813 137.989 54.6024 138.111 54.7208C138.334 54.9738 138.547 55.2375 138.725 55.5254L138.774 55.4918C138.943 55.7541 139.153 55.9882 139.366 56.2196L139.333 56.3434L139.455 56.295C139.529 56.4134 139.607 56.5318 139.687 56.6488C139.802 56.7376 139.919 56.8251 140.038 56.9125C140.032 56.9556 140.015 57.0417 140.009 57.0847L140.122 57.1076C140.21 57.2287 140.305 57.3511 140.4 57.4709C140.495 57.5825 140.595 57.6929 140.698 57.8032C140.779 57.896 140.863 57.9902 140.948 58.083C141.147 58.336 141.362 58.5782 141.59 58.8096C141.76 59.0464 141.946 59.2751 142.13 59.5051C142.172 59.5334 142.256 59.5899 142.298 59.6168C142.39 59.7419 142.483 59.8671 142.577 59.9935C142.868 60.3528 143.165 60.7254 143.588 60.9421C143.592 55.7057 143.634 50.4666 143.554 45.2316L143.406 45.3244C143.373 44.7217 143.436 44.0893 143.211 43.5162C143.136 43.0843 143.152 42.6215 142.895 42.2421C142.901 42.1936 142.916 42.0941 142.923 42.0443L142.754 42.0564C142.738 41.9528 142.703 41.7429 142.685 41.6393C142.628 41.646 142.513 41.6595 142.455 41.6662C142.457 41.6205 142.464 41.5276 142.468 41.4819C142.3 41.3837 142.141 41.2828 141.98 41.1819C141.854 41.1173 141.732 41.05 141.611 40.9814C141.488 40.9774 141.241 40.9666 141.117 40.9612C141.12 40.9316 141.127 40.8724 141.13 40.8442C140.65 40.7957 140.174 40.7339 139.697 40.6881C139.589 40.5737 139.477 40.4661 139.36 40.3652C139.352 40.0423 139.364 39.7194 139.385 39.3965C139.525 39.3521 139.668 39.3064 139.812 39.262C140.495 39.3521 141.184 39.3091 141.871 39.3225C144.17 39.344 146.468 39.3481 148.767 39.301C148.985 39.2673 149.203 39.2996 149.422 39.3319L149.326 39.5378C149.383 39.5216 149.497 39.4893 149.555 39.4732C149.539 39.9024 149.675 40.4231 149.26 40.7096C148.938 40.75 148.618 40.8038 148.299 40.8455L148.326 40.9693C148.085 40.9706 147.844 40.9733 147.607 40.9747L147.648 41.0756C147.444 41.1254 147.244 41.1805 147.046 41.233L147.087 41.3178C146.815 41.4146 146.695 41.6541 146.607 41.9071C146.57 41.9003 146.497 41.8882 146.459 41.8815C146.426 42.199 146.397 42.5165 146.372 42.8354C146.345 42.8327 146.292 42.8273 146.265 42.8246C146.233 42.9942 146.199 43.1637 146.163 43.3332C146.137 43.9857 146.141 44.6423 146 45.2841C145.942 52.2977 145.982 59.3128 145.976 66.3264C145.977 67.6113 145.993 68.8962 146.005 70.1811C145.93 70.216 145.778 70.2847 145.704 70.3183L145.762 70.3896C145.61 70.4636 145.478 70.5605 145.365 70.6815C145.062 70.7165 144.759 70.7206 144.46 70.6856C144.282 70.3708 144.052 70.0923 143.814 69.8259C143.817 69.7963 143.823 69.7398 143.826 69.7115C143.722 69.6066 143.622 69.4989 143.524 69.3913C143.294 69.1195 143.05 68.8585 142.865 68.5558C142.751 68.436 142.644 68.319 142.528 68.2073C142.457 68.0903 142.391 67.9746 142.326 67.8602L142.245 67.9006C142.13 67.7122 142.012 67.5265 141.9 67.3395L141.846 67.3597C141.754 67.2386 141.664 67.1189 141.575 66.9991C141.476 66.874 141.38 66.7489 141.28 66.6291C141.203 66.5336 141.127 66.4394 141.052 66.3466C140.925 66.2 140.802 66.0533 140.683 65.904C140.595 65.7963 140.508 65.69 140.424 65.5824C140.248 65.3981 140.087 65.2043 139.926 65.0106C139.865 64.903 139.804 64.7953 139.745 64.6904C139.653 64.6029 139.563 64.5155 139.475 64.428C139.368 64.3043 139.264 64.1791 139.161 64.0567C138.827 63.6437 138.498 63.2266 138.118 62.8552L138.164 62.8122C137.935 62.5862 137.728 62.3399 137.56 62.0682L137.515 62.1072C137.392 61.9296 137.263 61.7601 137.129 61.5946C137.045 61.4775 136.964 61.3591 136.887 61.2421L136.844 61.2905C136.756 61.1694 136.668 61.051 136.58 60.934C136.542 60.8761 136.466 60.7591 136.428 60.6999C136.152 60.3904 135.87 60.085 135.638 59.7419C135.528 59.6437 135.42 59.5482 135.313 59.454C135.314 59.4217 135.32 59.3572 135.321 59.3262C135.242 59.2684 135.085 59.1527 135.007 59.0948L135.079 58.9643C135.042 58.9643 134.97 58.9629 134.934 58.9616C134.84 58.8217 134.746 58.6858 134.648 58.5512C134.441 58.3091 134.235 58.0669 134.027 57.8274C133.826 57.6 133.637 57.3619 133.488 57.0995C133.457 57.0995 133.395 57.0995 133.363 57.0995C133.269 56.9354 133.167 56.7793 133.033 56.6488C132.965 56.5237 132.9 56.3986 132.838 56.2748L132.771 56.3407C132.58 56.0474 132.358 55.7783 132.132 55.5133L132.095 55.5039C131.933 55.2523 131.744 55.0209 131.545 54.7989C131.328 54.5661 131.141 54.3091 130.966 54.0441C130.603 53.666 130.269 53.2651 129.914 52.8816C129.855 52.7511 129.799 52.6206 129.746 52.4901L129.675 52.5628C129.457 52.2829 129.233 52.0112 129.025 51.7259L128.906 51.7649C128.907 51.691 128.908 51.5416 128.91 51.4663C128.842 51.4636 128.707 51.4582 128.64 51.4542C128.645 51.4057 128.653 51.3089 128.657 51.2604C128.554 51.1622 128.454 51.064 128.355 50.9644C128.176 50.7411 127.995 50.5204 127.82 50.2971C127.484 49.9042 127.142 49.5194 126.827 49.1118C126.557 48.7041 126.205 48.361 125.913 47.9736L125.861 48.0072C125.776 47.878 125.692 47.7489 125.608 47.6211C125.485 47.4852 125.365 47.3466 125.249 47.208C125.155 47.0883 125.061 46.9685 124.968 46.8501L124.923 46.8986C124.858 46.6254 124.605 46.5972 124.371 46.5609C124.349 49.6957 124.364 52.8319 124.36 55.9667C124.387 57.9875 124.291 60.0137 124.447 62.0305C124.455 62.9481 124.475 63.867 124.491 64.7846C124.525 64.7778 124.593 64.7657 124.625 64.759C124.617 64.9474 124.612 65.1357 124.606 65.3254L124.719 65.3053C124.716 65.8152 124.8 66.3184 124.904 66.8175L124.999 66.7704C125.038 66.9601 125.084 67.1485 125.13 67.3395C125.244 67.4445 125.356 67.5561 125.47 67.6678C125.569 67.7553 125.67 67.8454 125.771 67.9369C126.039 68.0728 126.328 68.1522 126.629 68.1871C126.622 68.2208 126.606 68.2907 126.599 68.3244C127.059 68.3647 127.52 68.4051 127.983 68.436C127.973 68.4724 127.955 68.5423 127.946 68.5773C128.045 68.5773 128.241 68.576 128.339 68.5746C128.387 68.6432 128.482 68.7778 128.531 68.8464C128.55 69.1384 128.609 69.4545 128.432 69.7169C128.423 69.7613 128.401 69.8514 128.39 69.8972C127.92 69.9362 127.449 69.912 126.979 69.8958C124.904 69.8272 122.828 69.8407 120.753 69.8662C120.011 69.8716 119.268 69.9725 118.528 69.877C118.463 69.4478 118.465 69.0146 118.511 68.584C118.62 68.5814 118.84 68.5733 118.949 68.5692C118.937 68.5302 118.912 68.4522 118.899 68.4118C119.232 68.3863 119.565 68.362 119.901 68.3472C119.896 68.3042 119.883 68.2208 119.877 68.1791C120.235 68.1347 120.648 68.1831 120.901 67.871C120.946 67.8817 121.035 67.9046 121.081 67.9154L121.09 67.8131C121.203 67.6934 121.31 67.5696 121.413 67.4404C121.447 67.3691 121.516 67.2279 121.551 67.1579C121.649 66.7731 121.704 66.3816 121.772 65.9914C122.021 65.0483 121.883 64.0634 122.003 63.1041C122.056 57.2744 122.016 51.4447 122.028 45.6164C122.055 44.8455 121.938 44.0813 121.9 43.3144L121.798 43.4005C121.699 43.0978 121.578 42.8018 121.439 42.5152C121.241 42.3255 121.06 42.1223 120.9 41.9017L120.877 41.9326C120.754 41.7658 120.585 41.6582 120.391 41.599C120.395 41.5546 120.403 41.4671 120.407 41.4227C120.306 41.42 120.103 41.416 120.003 41.4133C120.008 41.377 120.022 41.3016 120.028 41.2653C119.557 41.1859 119.121 40.9653 118.644 40.9289C118.65 40.9061 118.664 40.8603 118.669 40.8374C118.342 40.7917 118.017 40.7339 117.692 40.6868C117.7 40.6316 117.718 40.5226 117.726 40.4675L117.529 40.4701C117.535 40.1055 117.551 39.7423 117.58 39.3804Z" fill="#0F0B0F"/>
<path d="M63.2332 82.8065C63.4146 82.7863 63.5946 82.7702 63.7787 82.7581C63.7815 82.8495 63.7869 83.0312 63.7896 83.1213L63.9466 83.0325C63.9899 83.3285 64.0468 83.6232 64.0982 83.9192C64.1307 83.9151 64.197 83.9057 64.2295 83.9017C64.2363 84.0174 64.2471 84.2474 64.2539 84.3631C64.308 84.4963 64.3608 84.6309 64.4136 84.7668C64.5652 85.2404 64.7168 85.7166 64.7764 86.2144L64.9104 86.1283C64.9294 86.3355 64.951 86.5441 64.9795 86.754C65.2867 87.2249 65.3639 87.8034 65.4749 88.3442C65.5006 88.3375 65.5507 88.3241 65.5764 88.3173C65.6387 88.8824 65.9379 89.3856 66.0056 89.952C66.034 89.9439 66.0922 89.9305 66.122 89.9224C66.1314 90.0422 66.1518 90.2803 66.1626 90.4C66.3196 90.6315 66.39 90.9005 66.4157 91.179L66.5321 91.1468C66.5497 91.3795 66.5673 91.6123 66.5863 91.8491C66.6323 91.8437 66.723 91.8329 66.769 91.8275C66.7988 92.1558 66.8489 92.4827 66.9234 92.8057L67.0438 92.733C67.0723 93.2147 67.2401 93.6694 67.3728 94.1295L67.4757 94.0798C67.4865 94.2762 67.4973 94.4753 67.5109 94.6744C67.5596 94.6744 67.6543 94.6731 67.7031 94.6717C67.6909 95.3821 68.0483 96.0091 68.189 96.6858L68.2906 96.667C68.2987 96.8998 68.3095 97.1352 68.319 97.3693L68.4544 97.2967C68.5112 97.5752 68.5545 97.8577 68.587 98.1416C68.6222 98.1281 68.6926 98.1012 68.7278 98.0891C68.7671 98.2869 68.8077 98.486 68.8469 98.6851C68.8794 98.6757 68.9471 98.6555 68.9796 98.6461C69.0365 98.7928 69.0947 98.9421 69.1515 99.0915C69.1935 99.0847 69.2747 99.0713 69.3153 99.0645C69.4128 99.4668 69.9042 99.3027 70.2074 99.3753C70.1939 99.4009 70.1681 99.452 70.1546 99.4776C70.3888 99.5381 70.6216 99.6054 70.8572 99.6646C70.8748 99.8705 70.891 100.074 70.91 100.282C69.9718 100.349 69.031 100.282 68.0929 100.301C66.8638 100.282 65.6333 100.339 64.4055 100.292C64.4028 100.176 64.3974 99.9431 64.3947 99.8274C64.4299 99.7507 64.4989 99.596 64.5341 99.5193C64.7656 99.518 64.9984 99.5153 65.2326 99.5166L65.169 99.3834C65.3098 99.37 65.5913 99.3417 65.7321 99.3283C65.7565 98.8197 65.7023 98.3151 65.5981 97.8187L65.4884 97.9411C65.437 97.5994 65.3626 97.263 65.303 96.9253C65.2813 96.9294 65.2394 96.9388 65.2191 96.9442C65.1514 96.6953 65.0769 96.4504 65.0065 96.2055C64.9605 96.0306 64.924 95.8544 64.8901 95.6795L64.8021 95.7562C64.7534 95.4615 64.6979 95.1709 64.6505 94.8789C64.6234 94.8911 64.5679 94.9153 64.5409 94.926C64.5043 94.587 64.3703 94.2775 64.1794 93.9977C62.7134 93.9654 61.246 93.9802 59.7786 93.9937C59.715 94.1726 59.65 94.3529 59.5918 94.5372L59.5268 94.4995C59.4429 94.9287 59.2859 95.3391 59.2019 95.7696L59.0937 95.7131C59.0409 96.04 58.9813 96.3643 58.9312 96.6926C58.9014 96.6778 58.8419 96.6468 58.8121 96.6307C58.7647 96.9105 58.7092 97.189 58.6659 97.4702L58.586 97.4581C58.475 98.0501 58.1718 98.6152 58.2869 99.2368C58.5644 99.3942 58.9055 99.3417 59.2128 99.3888C59.2074 99.413 59.1979 99.4614 59.1925 99.4857C59.3928 99.5274 59.5918 99.5785 59.7922 99.631L59.7218 99.8301L59.8977 99.7346C59.9018 99.8758 59.9072 100.017 59.9153 100.16C59.8301 100.188 59.6622 100.246 59.5783 100.275L59.6784 100.438C57.9918 100.411 56.3051 100.411 54.6184 100.434C54.6265 100.374 54.6414 100.251 54.6495 100.189L54.4708 100.203C54.4803 100.018 54.4898 99.8382 54.5006 99.6579C54.7416 99.6027 54.9798 99.5381 55.2208 99.483L55.1639 99.3901C55.4685 99.3646 55.7744 99.3269 56.0695 99.2435C56.1575 99.1264 56.2496 99.0148 56.3443 98.9058C56.5095 98.6636 56.6259 98.3945 56.6814 98.1093L56.7897 98.1698C56.8384 97.9196 56.8899 97.672 56.9359 97.4231L57.055 97.5079C57.0997 97.2644 57.1498 97.0235 57.1985 96.7814L57.3122 96.8258C57.3325 96.6643 57.3542 96.5042 57.3772 96.3454C57.4259 96.2782 57.5234 96.1409 57.5708 96.0723C57.5843 95.9055 57.5978 95.7387 57.6114 95.5732C57.652 95.5839 57.7318 95.6055 57.7711 95.6162C57.8049 95.3781 57.8374 95.14 57.8699 94.9032C57.9051 94.9166 57.9742 94.9435 58.0094 94.957C58.0364 94.6839 58.0892 94.4148 58.2151 94.1699C58.2787 93.995 58.341 93.8228 58.4046 93.6506C58.4628 93.4367 58.5224 93.2227 58.5752 93.0102L58.6848 93.0667C58.7363 92.7774 58.7931 92.4895 58.8419 92.2016C58.8703 92.2164 58.9271 92.2473 58.9556 92.2635C59.003 92.024 59.0585 91.7858 59.1085 91.549C59.1275 91.5504 59.1667 91.5531 59.1857 91.5544C59.2304 91.397 59.2791 91.2409 59.3305 91.0862C59.3874 90.8723 59.4497 90.6597 59.5146 90.4485L59.6189 90.5225C59.6663 90.2224 59.7272 89.9265 59.7773 89.6278L59.891 89.7112C59.9438 89.4219 60.0101 89.1367 60.0588 88.8488L60.1969 88.8797C60.1901 88.8326 60.1752 88.7371 60.1685 88.69C60.3093 88.3564 60.4311 88.0146 60.492 87.6594L60.603 87.6998C60.6057 87.646 60.6098 87.5383 60.6125 87.4845C60.668 87.2652 60.714 87.0446 60.7533 86.8239C60.7966 86.8347 60.8819 86.8575 60.9252 86.8683C60.9482 86.6315 60.9699 86.3947 60.9929 86.1593C61.0389 86.1647 61.1296 86.1768 61.1756 86.1822C61.1621 86.1324 61.1364 86.0342 61.1228 85.9857C61.3029 85.5767 61.4464 85.1556 61.5831 84.7318C61.6183 84.5138 61.6413 84.2932 61.6656 84.0752C61.7767 83.9797 61.8877 83.8828 61.9987 83.7873C62.1381 83.7281 62.2802 83.6689 62.421 83.6124C62.7066 83.3581 63.0044 83.1146 63.2332 82.8065ZM61.931 86.828C61.8714 87.2249 61.8579 87.6312 61.7658 88.0267C61.6156 88.2689 61.5262 88.5407 61.4274 88.8071C61.3557 89.0344 61.2785 89.2618 61.2081 89.4919C61.1323 89.7637 61.1066 90.0637 60.9022 90.279C60.8819 90.4512 60.8656 90.6234 60.8521 90.7983L60.7248 90.7189C60.6707 90.9961 60.6084 91.2719 60.5583 91.5517L60.4446 91.5288C60.4379 91.6499 60.4324 91.7737 60.4257 91.8975C60.3201 92.1397 60.2294 92.3872 60.1468 92.6388C60.9699 92.846 61.8294 92.7047 62.6701 92.7478C63.0478 92.7169 63.4782 92.8353 63.8139 92.6146C63.8167 92.2392 63.7341 91.8719 63.6799 91.5046L63.5635 91.588C63.527 91.4185 63.4891 91.2517 63.4498 91.0849C63.4444 91.0243 63.4349 90.9005 63.4295 90.8386L63.3198 90.8898C63.2711 90.4835 63.1276 90.0987 62.9896 89.7166C62.8379 89.4475 62.823 89.134 62.7811 88.8394C62.7445 88.8515 62.6714 88.8784 62.6335 88.8918C62.5889 88.5609 62.5239 88.2353 62.4657 87.9097C62.4372 87.9151 62.379 87.9285 62.3506 87.9352C62.3303 87.6379 62.3425 87.3311 62.245 87.0459C62.2071 86.9275 62.0718 86.7432 61.931 86.828Z" fill="#0F0B0F"/>
<path d="M168.936 83.5492C169.229 83.2465 169.547 82.9693 169.847 82.6707C169.945 82.7056 170.144 82.7756 170.243 82.8106C170.301 83.0258 170.354 83.2438 170.399 83.4658L170.523 83.4631L170.449 83.634C170.483 83.6367 170.55 83.6434 170.584 83.6461C170.626 84.0107 170.695 84.3726 170.758 84.7359L170.875 84.6592C170.921 84.9888 170.985 85.3144 171.036 85.644C171.064 85.64 171.12 85.6333 171.147 85.6306C171.23 86.384 171.619 87.0581 171.72 87.8088C171.757 87.7954 171.828 87.7698 171.865 87.7563C171.877 88.0012 171.891 88.2447 171.906 88.4909C171.953 88.4829 172.046 88.4667 172.092 88.4573C172.113 88.6605 172.134 88.8623 172.159 89.0681C172.358 89.5821 172.582 90.0933 172.647 90.6476C172.68 90.6315 172.746 90.5979 172.779 90.5817C172.819 90.9073 172.871 91.2329 172.922 91.5585C172.955 91.5491 173.017 91.5289 173.049 91.5181C173.075 91.7899 173.143 92.055 173.228 92.316C173.274 92.4693 173.32 92.6241 173.365 92.7828L173.464 92.7492C173.484 92.986 173.504 93.2214 173.53 93.4609C173.579 93.4569 173.675 93.4461 173.722 93.4421C173.751 93.7542 173.778 94.0677 173.803 94.3825C173.853 94.3758 173.956 94.3623 174.006 94.3556C174.012 94.5211 174.02 94.6879 174.032 94.8561C174.121 95.0835 174.201 95.3136 174.293 95.5436C174.285 95.5921 174.269 95.6916 174.261 95.7401L174.41 95.7172C174.422 95.8719 174.436 96.0266 174.452 96.1827C174.48 96.2782 174.538 96.472 174.568 96.5675L174.689 96.4881C174.702 96.7343 174.718 96.9805 174.741 97.2294C174.786 97.2227 174.878 97.2093 174.924 97.2025C174.951 97.4528 174.981 97.7044 175.03 97.9533C175.267 98.3556 175.328 98.9112 175.778 99.1494L175.726 99.2435C175.939 99.2785 176.152 99.3189 176.37 99.3565L176.298 99.4669C176.622 99.518 177.06 99.4238 177.242 99.779C177.257 99.8866 177.288 100.102 177.304 100.208C177.022 100.367 176.692 100.305 176.388 100.314C174.557 100.274 172.727 100.329 170.898 100.297C170.892 100.072 170.889 99.8503 170.889 99.6283C171.317 99.5476 171.74 99.4386 172.155 99.3014C172.233 98.6139 171.987 97.9721 171.846 97.3129C171.819 97.325 171.762 97.3492 171.735 97.3613C171.673 97.0196 171.675 96.6469 171.47 96.3522C171.349 95.9621 171.218 95.5746 171.134 95.1763L171.058 95.2046C171.004 94.9126 170.942 94.622 170.892 94.3328L170.789 94.4067C170.731 94.2695 170.674 94.1336 170.618 93.9991C169.172 93.9601 167.728 93.9951 166.284 93.9816L166.267 94.1471C166.212 94.1336 166.101 94.1054 166.045 94.0906C165.983 94.4135 165.922 94.7364 165.876 95.062C165.85 95.0525 165.8 95.0337 165.775 95.0243C165.672 95.4427 165.542 95.8558 165.459 96.2809L165.37 96.2419C165.304 96.5635 165.232 96.8837 165.182 97.2093C165.151 97.1998 165.088 97.1823 165.059 97.1729C165.003 97.4904 164.949 97.8093 164.914 98.1309L164.812 98.0892C164.713 98.4659 164.651 98.8507 164.671 99.2435C164.983 99.3269 165.305 99.3713 165.63 99.3942C165.619 99.4279 165.599 99.4938 165.588 99.5274C165.779 99.5207 165.97 99.5153 166.165 99.5126C166.207 99.8167 166.213 100.126 166.158 100.432C164.448 100.415 162.738 100.414 161.029 100.43C160.945 100.117 160.797 99.6862 161.191 99.522C161.37 99.514 161.551 99.5059 161.734 99.4965L161.661 99.3727C161.956 99.3108 162.397 99.4521 162.561 99.1184C162.623 99.074 162.749 98.9839 162.811 98.9395C162.856 98.7578 162.901 98.5775 162.944 98.3973C162.986 98.404 163.067 98.4174 163.108 98.4242C163.142 97.999 163.326 97.6169 163.521 97.2469C163.555 97.0841 163.59 96.9213 163.624 96.7599C163.672 96.7276 163.771 96.6617 163.821 96.628C163.835 96.406 163.854 96.1867 163.873 95.9674L164.023 96.0401C164.069 95.7885 164.116 95.5382 164.16 95.288L164.255 95.3485C164.309 95.1104 164.372 94.875 164.429 94.6395L164.525 94.6489C164.531 94.4633 164.539 94.2789 164.548 94.0973L164.699 94.143C164.743 93.8888 164.788 93.6372 164.826 93.3842L164.96 93.4676C164.998 93.2214 165.04 92.9752 165.079 92.7304L165.197 92.7761C165.222 92.6187 165.254 92.4626 165.29 92.3079C165.388 92.0563 165.469 91.798 165.534 91.537C165.561 91.541 165.615 91.5504 165.642 91.5558C165.679 91.319 165.723 91.0849 165.761 90.8495C165.795 90.8629 165.864 90.8871 165.898 90.9006C165.936 90.6947 165.976 90.4916 166.024 90.2884C166.11 90.1068 166.169 89.913 166.215 89.718C166.257 89.6547 166.342 89.5283 166.385 89.465C166.403 89.2942 166.423 89.1246 166.445 88.9565L166.569 89.0157C166.606 88.7775 166.645 88.538 166.688 88.3012C166.722 88.316 166.79 88.3443 166.824 88.3591C166.875 88.0362 166.943 87.716 167.004 87.3958C167.046 87.3917 167.13 87.3837 167.173 87.3796C167.158 87.3352 167.127 87.2464 167.112 87.202C167.246 86.906 167.363 86.6006 167.418 86.2818L167.506 86.3383C167.563 86.0544 167.629 85.7718 167.682 85.488C167.715 85.5001 167.779 85.527 167.811 85.5391C167.884 85.1664 167.93 84.7883 167.955 84.4116L168.088 84.4789C168.083 84.347 168.079 84.2152 168.079 84.0847C168.176 83.9892 168.278 83.8963 168.382 83.8062C168.567 83.7295 168.754 83.642 168.936 83.5492ZM168.347 87.12C168.339 87.3043 168.333 87.4899 168.329 87.6756L168.205 87.6608C168.156 87.8963 168.098 88.1277 168.053 88.3645C168.027 88.3537 167.977 88.3308 167.953 88.3201C167.881 88.8569 167.659 89.3507 167.499 89.8646C167.322 90.2965 167.17 90.7405 167.095 91.202L166.997 91.1185C166.951 91.6742 166.625 92.1707 166.668 92.7371C167.855 92.7209 169.052 92.8138 170.235 92.6833C170.231 92.4317 170.227 92.1814 170.226 91.9325L170.105 91.9823C170.056 91.6984 169.997 91.4172 169.949 91.1347C169.912 91.1468 169.837 91.1724 169.799 91.1845C169.787 90.9463 169.773 90.7095 169.767 90.4741C169.715 90.4822 169.612 90.497 169.561 90.505C169.543 90.3032 169.522 90.1001 169.503 89.9009C169.321 89.7112 169.278 89.4529 169.247 89.2067C169.126 88.9147 169.044 88.6107 169.007 88.2999C168.979 88.312 168.919 88.3376 168.89 88.351C168.838 87.9407 168.76 87.5343 168.711 87.1253C168.588 87.1226 168.466 87.1213 168.347 87.12Z" fill="#0F0B0F"/>
<path d="M28.8456 83.0459C30.5702 83.0903 32.2961 83.0257 34.018 83.0849C34.0275 83.4226 34.041 83.7603 34.06 84.0994C34.1399 84.3173 34.2143 84.5366 34.2969 84.7559C34.3023 84.8824 34.3064 85.0102 34.3118 85.1407L34.4201 85.0842C34.4634 85.3331 34.5148 85.582 34.5649 85.8309C34.5947 85.8161 34.6543 85.7879 34.684 85.7744C34.7368 86.0475 34.8018 86.3206 34.8627 86.5938L34.9737 86.5359C35.0238 86.7323 35.0807 86.9274 35.1321 87.1239L35.2648 87.105C35.2607 87.21 35.2526 87.4225 35.2472 87.5275L35.392 87.4791C35.4286 87.6836 35.4705 87.8894 35.5084 88.0966C35.545 88.0872 35.6167 88.067 35.6533 88.0576C35.6966 88.2755 35.7426 88.4949 35.7886 88.7155C35.8198 88.7115 35.8848 88.7034 35.9159 88.6994C36.0228 89.0249 36.1298 89.3505 36.2502 89.6734L36.3396 89.6317C36.3816 89.8389 36.4303 90.0461 36.475 90.256L36.5995 90.182C36.636 90.4592 36.7119 90.7336 36.9108 90.9435C36.9054 90.9812 36.8932 91.0565 36.8865 91.0929C36.9339 91.1615 37.03 91.2987 37.0773 91.3673C37.1193 91.514 37.1599 91.662 37.1978 91.8113L37.3021 91.7952C37.3454 91.9943 37.3914 92.1907 37.4347 92.3925C37.474 92.3831 37.5525 92.3643 37.5917 92.3549C37.5958 92.4625 37.6026 92.6791 37.6066 92.7867C37.6513 92.7827 37.7393 92.776 37.784 92.7719C37.8408 93.0491 37.9193 93.3209 37.9938 93.5953L38.1359 93.5805C38.121 93.6492 38.0926 93.7837 38.0791 93.8523L38.2171 93.8267C38.2713 94.0245 38.3295 94.2223 38.385 94.4228L38.4919 94.334C38.5393 94.5425 38.5908 94.7524 38.6368 94.965L38.787 94.8937C38.7938 95.0053 38.8101 95.226 38.8168 95.3363C38.9332 95.3403 39.1674 95.3457 39.2838 95.3484C39.292 95.23 39.3055 94.9946 39.3136 94.8775L39.4625 94.9609C39.5099 94.7511 39.5586 94.5425 39.6033 94.334L39.6994 94.3932C39.782 94.1241 39.8781 93.8617 40.004 93.6115C40.004 93.59 40.0027 93.5456 40.0027 93.5227C40.2098 93.3195 40.2571 93.0329 40.3113 92.7639C40.3546 92.7706 40.4385 92.7854 40.4819 92.7921C40.4859 92.6818 40.4954 92.4598 40.4995 92.3495C40.5333 92.3602 40.601 92.3804 40.6362 92.3898C40.7255 92.0589 40.8433 91.7373 40.9814 91.4252L41.0734 91.4615C41.1167 91.2543 41.1668 91.0485 41.2128 90.8426C41.2507 90.8534 41.3279 90.8749 41.3658 90.8857C41.4118 90.661 41.4565 90.4376 41.5012 90.2143C41.5458 90.2156 41.6352 90.217 41.6799 90.2183C41.6596 90.1497 41.6203 90.0138 41.6 89.9452L41.7841 89.9156C41.7746 89.8551 41.7557 89.7353 41.7462 89.6748L41.9141 89.6425C41.8992 89.5766 41.868 89.4474 41.8531 89.3828L42.0169 89.4003C42.0684 89.1649 42.1279 88.9321 42.1834 88.7007C42.2227 88.7115 42.3026 88.733 42.3418 88.7437C42.3743 88.5446 42.4054 88.3482 42.4379 88.1531L42.5367 88.219C42.6423 87.8854 42.7736 87.5598 42.8874 87.2302L42.955 87.2651C43.0038 87.0431 43.0038 86.7835 43.2217 86.6503C43.2894 86.4202 43.3584 86.1888 43.4884 85.987C43.5764 85.7919 43.6617 85.5982 43.7605 85.4111C43.7699 85.3277 43.7875 85.1636 43.797 85.0802L43.9121 85.1273C43.9744 84.834 44.0461 84.5434 44.0975 84.2487L44.2085 84.3429C44.2613 84.0429 44.3168 83.7455 44.3534 83.4441L44.4915 83.5181C44.4874 83.4065 44.4806 83.1845 44.4779 83.0728C46.0902 83.0594 47.7065 83.0392 49.3187 83.0782C49.3295 83.2921 49.3404 83.5087 49.3512 83.7253L49.1644 83.7374L49.2578 83.8706C48.7894 83.9177 48.3251 84.0038 47.8554 84.0281C47.8621 84.0657 47.8757 84.1424 47.8811 84.1814C47.7376 84.2218 47.5928 84.2635 47.4479 84.3039C47.4005 84.4451 47.3545 84.5864 47.3085 84.729L47.1704 84.6335C47.0784 88.4774 47.1555 92.3253 47.1839 96.1691L47.3247 96.0749C47.3261 96.9979 47.3301 97.9249 47.4411 98.8438L47.563 98.7914C47.6144 98.9474 47.6659 99.1048 47.7186 99.2622C47.9907 99.3228 48.2669 99.3605 48.5457 99.3914C48.5336 99.4156 48.5119 99.4627 48.5011 99.4869C48.7529 99.5286 49.0019 99.5838 49.2537 99.6309C49.2618 99.8946 49.2415 100.16 49.1928 100.421C47.0337 100.422 44.8746 100.418 42.7154 100.422C42.7141 100.387 42.7127 100.318 42.7114 100.283C42.5692 100.069 42.6396 99.8435 42.6992 99.6228C42.9347 99.573 43.1703 99.5179 43.4072 99.4735L43.3422 99.3605C43.5899 99.3497 43.839 99.3376 44.0881 99.3268C44.0813 99.2676 44.0664 99.1492 44.0596 99.09C44.1206 99.0941 44.2424 99.1048 44.3033 99.1102C44.3128 98.9097 44.3236 98.7106 44.3331 98.5128L44.4752 98.5963C44.4779 94.9704 44.4779 91.3431 44.4752 87.7172C44.4739 87.4616 44.4536 87.2073 44.4251 86.9557C44.3764 87.1037 44.3317 87.253 44.2911 87.4051C44.2464 87.401 44.1585 87.3956 44.1138 87.3916C44.0001 87.771 43.8782 88.1491 43.7185 88.5123C43.5994 88.702 43.5249 88.9106 43.4803 89.1299C43.4505 89.1205 43.3882 89.1003 43.3584 89.0909C43.3219 89.2819 43.288 89.473 43.2542 89.6667C43.2231 89.66 43.1621 89.6479 43.131 89.6411C43.0809 89.8362 43.0241 90.03 42.9726 90.2264L42.8901 90.2183C42.8494 90.4403 42.7885 90.665 42.6315 90.8372C42.6153 90.9247 42.5841 91.0996 42.5692 91.187L42.4271 91.105C42.3838 91.3162 42.3391 91.5288 42.2985 91.7427L42.2024 91.6741C42.1306 91.9432 42.0264 92.2028 41.8978 92.4504C41.8978 92.4759 41.8965 92.5271 41.8951 92.554C41.7042 92.7612 41.6379 93.0329 41.5797 93.3007C41.5526 93.294 41.4998 93.2805 41.4741 93.2738C41.3658 93.6344 41.1993 93.9734 41.045 94.3165C40.9949 94.4752 40.9475 94.6353 40.9042 94.7995L40.8243 94.747C40.7594 94.9475 40.6944 95.1506 40.6213 95.3498C40.4683 95.5368 40.4209 95.7736 40.3668 96.0036C40.3411 95.9956 40.2883 95.9767 40.2626 95.9673C40.2111 96.1516 40.161 96.3386 40.115 96.5257L40.0568 96.5364C39.9065 96.8822 39.7563 97.2333 39.6913 97.6087C39.6588 97.6006 39.5938 97.5859 39.5614 97.5778C39.5126 97.8267 39.4679 98.0769 39.43 98.3299L39.3055 98.2303C39.2527 98.4321 39.1999 98.6366 39.1498 98.8425L39.0849 98.8129C39.0172 99.0201 38.9441 99.2286 38.8818 99.4398C38.7843 99.6645 38.6787 99.8865 38.5745 100.11C38.5461 100.261 38.519 100.414 38.4933 100.567C38.3931 100.563 38.1941 100.555 38.094 100.551C38.0831 100.616 38.0601 100.745 38.0479 100.811C38.0263 100.76 37.9816 100.657 37.9586 100.606C37.6148 100.445 37.6066 100.035 37.5511 99.713L37.4686 99.7964C37.4239 99.5919 37.3779 99.3914 37.3237 99.1923C37.321 99.1237 37.3156 98.9851 37.3129 98.9151L37.1938 98.9757C37.1342 98.7631 37.0733 98.5546 37.0124 98.3447C36.9515 98.1886 36.8919 98.0312 36.835 97.8751L36.7728 97.8899C36.724 97.6518 36.6631 97.415 36.6117 97.1795C36.5792 97.1876 36.5129 97.2051 36.4804 97.2132C36.4371 96.9522 36.387 96.6952 36.3464 96.4355L36.2299 96.5297C36.169 96.305 36.1013 96.083 36.0418 95.861L35.9199 95.8597C35.9227 95.8099 35.9281 95.7117 35.9321 95.6633C35.79 95.4251 35.7128 95.1574 35.6519 94.891C35.6248 94.899 35.5734 94.9138 35.5463 94.9206C35.4935 94.669 35.4313 94.416 35.2837 94.2021C35.1971 94.007 35.1159 93.8119 35.0346 93.6169C34.8844 93.337 34.7856 93.0356 34.7111 92.7302C34.68 92.7383 34.6191 92.7558 34.5893 92.7639C34.5392 92.5311 34.4877 92.301 34.439 92.071L34.324 92.1329C34.2888 91.8544 34.1886 91.592 34.041 91.3566C34.0478 91.3054 34.064 91.2045 34.0708 91.1547L33.953 91.1615C33.8786 90.9812 33.8041 90.8036 33.685 90.6502C33.6119 90.404 33.5496 90.1551 33.4941 89.9062L33.3926 89.96C33.3344 89.7286 33.2667 89.4999 33.2072 89.2712L33.065 89.2658C33.0772 89.2187 33.1002 89.1259 33.1124 89.0788C33.0163 88.8958 32.9215 88.7128 32.8268 88.5325C32.839 88.4774 32.866 88.3657 32.8796 88.3092L32.7036 88.3684C32.667 88.1235 32.6264 87.8786 32.5872 87.6378C32.5357 87.6472 32.4342 87.6661 32.3828 87.6755C32.3936 87.627 32.4126 87.5288 32.4234 87.4791C32.3449 87.2867 32.2677 87.0943 32.1905 86.9019C32.1147 88.1437 32.1445 89.3909 32.1405 90.6341L32.0295 90.5991C31.9916 92.1894 32.0362 93.7823 31.9171 95.3699C31.9036 96.3198 31.9239 97.271 31.909 98.2209C32.0064 98.5801 32.1526 98.9219 32.3232 99.2528C32.6346 99.3268 32.9527 99.3631 33.2735 99.382L33.1909 99.499C33.4143 99.5071 33.639 99.5138 33.861 99.5461C33.9016 99.795 33.9057 100.048 33.9192 100.301C32.0999 100.302 30.2805 100.308 28.4625 100.298C28.4612 100.071 28.4625 99.8435 28.4652 99.6174C28.8239 99.53 29.1908 99.4815 29.559 99.456L29.494 99.3941C29.8135 99.2744 30.1126 99.0416 30.1912 98.6958C30.5296 97.641 30.4849 96.5122 30.5282 95.417L30.6744 95.5112C30.6514 93.5523 30.8098 91.5987 30.8084 89.6398L30.9343 89.7125C30.9221 89.0048 30.9343 88.2971 30.956 87.5894C31.021 86.8723 31.136 86.139 30.9722 85.4273C30.9573 85.2847 30.9465 85.1434 30.9384 85.0021C30.8328 84.7761 30.7137 84.5555 30.5756 84.3496C30.4064 84.2971 30.2453 84.2178 30.095 84.129C30.1032 84.1074 30.1208 84.063 30.1289 84.0402C29.7065 84.0092 29.291 83.9312 28.8727 83.8774C28.8578 83.5989 28.8497 83.3217 28.8456 83.0459Z" fill="#0F0B0F"/>
<path d="M74.8992 83.0891C77.038 83.0433 79.1782 83.0178 81.3157 83.0891L81.2615 83.2088C81.8477 83.1765 82.3878 83.4174 82.955 83.5129L82.8914 83.5923C83.3056 83.6972 83.6833 83.895 84.0609 84.0941C84.2247 84.2529 84.3939 84.4089 84.5577 84.5731C84.6038 84.6054 84.6958 84.6713 84.7418 84.7036C84.8461 84.8153 84.9557 84.9215 85.0708 85.0251C85.1249 85.1987 85.1804 85.3736 85.2332 85.5512L85.3605 85.4597C85.4092 85.6642 85.4593 85.8714 85.5067 86.0799L85.5947 86.0154C85.6366 86.1835 85.684 86.3504 85.7341 86.5172C85.749 86.7136 85.7639 86.9128 85.7788 87.1105L85.8789 87.1092C85.9222 87.8478 85.7828 88.5744 85.6312 89.2942C85.6055 89.2915 85.5513 89.2888 85.5256 89.2861C85.4647 89.5336 85.3957 89.7839 85.24 89.9924C85.1601 90.0947 85.0816 90.1969 85.0045 90.3019C84.9124 90.4297 84.8231 90.5589 84.7351 90.688C84.6241 90.7674 84.5131 90.8468 84.4034 90.9275L84.4237 90.9679C84.3114 91.054 84.2004 91.1414 84.0894 91.2302C83.8863 91.3621 83.6724 91.4791 83.4464 91.5652C83.4558 91.5935 83.4761 91.6486 83.4856 91.6769C83.2853 91.728 83.0863 91.7859 82.8886 91.8424C82.9293 92.0953 82.8941 92.4196 83.1689 92.5595C83.2203 92.7357 83.2704 92.9147 83.3205 93.095L83.4328 93.0021C83.491 93.1972 83.5547 93.391 83.6142 93.5887L83.6995 93.5578C83.8105 93.7986 83.9242 94.0381 84.0312 94.2816L84.0948 94.2265C84.157 94.4027 84.2071 94.5965 84.3642 94.7202C84.4237 94.8696 84.4819 95.0216 84.5401 95.1763C84.6904 95.4077 84.838 95.6419 84.9801 95.88L85.06 95.8396C85.0992 96.0065 85.1439 96.1746 85.1913 96.3428C85.3293 96.4814 85.4376 96.6415 85.5351 96.811L85.5757 96.7922C85.6975 97.0478 85.8343 97.3021 86.0495 97.4972C86.0969 97.6344 86.1456 97.7716 86.1943 97.9116L86.3148 97.8214C86.3663 97.9533 86.4191 98.0865 86.4732 98.221C86.6167 98.3475 86.7575 98.4793 86.8996 98.6112C86.9835 98.704 87.0688 98.7982 87.1528 98.8937C87.2448 98.9946 87.3355 99.0955 87.4275 99.1991C87.9013 99.479 88.4211 99.6579 88.9369 99.849C88.9626 99.962 89.0127 100.189 89.0384 100.302C88.9531 100.297 88.7826 100.285 88.6959 100.28L88.7785 100.425C88.5971 100.456 88.4184 100.491 88.2411 100.53C87.5318 100.571 86.8211 100.549 86.1199 100.446C86.1334 100.418 86.1618 100.36 86.1754 100.332C85.8018 100.3 85.4349 100.234 85.0681 100.165L85.1155 100.067C84.7148 99.9391 84.3763 99.6929 84.0826 99.4023C83.8376 99.2045 83.6142 98.9839 83.4058 98.7511C83.3205 98.6529 83.2352 98.5547 83.1526 98.4578C83.0511 98.3112 82.955 98.1605 82.8643 98.0125L82.8034 98.0394C82.6869 97.8174 82.5692 97.5967 82.4582 97.3747L82.3986 97.3828C82.3174 97.2483 82.2335 97.1178 82.1482 96.9886C81.9749 96.5473 81.6433 96.1881 81.5092 95.7307L81.4348 95.7656C81.3847 95.6217 81.3346 95.4777 81.2845 95.3364C81.1546 95.1575 81.0625 94.957 80.9867 94.7539L80.9272 94.809C80.8216 94.5238 80.6984 94.2453 80.5847 93.9641L80.4656 93.9883C80.452 93.882 80.4263 93.6695 80.4128 93.5632C80.3722 93.5726 80.2896 93.5887 80.249 93.5982C80.1786 93.1178 79.7589 92.8232 79.3379 92.6537C78.9521 92.6658 78.5663 92.6685 78.1832 92.7088C78.1521 94.0946 78.1778 95.4817 78.1684 96.8689C78.1927 97.5564 78.1426 98.2533 78.2942 98.9301C78.4107 99.0565 78.5244 99.1884 78.6381 99.3216C78.8506 99.3417 79.0672 99.3633 79.2824 99.3808L79.2229 99.5086C79.3961 99.5086 79.5708 99.5113 79.7467 99.5153C79.8334 99.5543 80.0067 99.631 80.0933 99.6687C80.1028 99.9781 80.0676 100.286 79.9809 100.585C79.9809 100.512 79.9809 100.366 79.9809 100.292C77.7338 100.312 75.4827 100.306 73.2355 100.296C73.1895 100.052 73.2261 99.814 73.2924 99.5812C73.3547 99.6014 73.4792 99.6404 73.5415 99.6606L73.5712 99.5126C73.7378 99.5086 73.9043 99.5045 74.0708 99.5019C74.4349 99.3633 74.8396 99.2624 75.0535 98.9058C75.2173 98.1914 75.1713 97.4568 75.1875 96.7316C75.1889 93.1461 75.1943 89.5619 75.1835 85.9777C75.1483 85.4893 75.2579 84.9538 74.994 84.5125C74.9412 84.4789 74.8383 84.413 74.7869 84.3793L74.7963 84.2919C74.3835 84.1762 73.9557 84.1385 73.5293 84.1452L73.5861 83.9757C73.5117 83.9851 73.3628 84.0026 73.2897 84.012C73.287 83.8062 73.287 83.6017 73.2897 83.3985C73.3709 83.3568 73.5347 83.2721 73.6159 83.2304C74.0613 83.2209 74.5066 83.2021 74.9534 83.2048L74.8992 83.0891ZM78.209 84.3094C78.1291 85.6265 78.1873 86.9477 78.1684 88.2663C78.19 89.356 78.125 90.4485 78.2103 91.5356C79.0834 91.6083 79.966 91.6029 80.8297 91.4428L80.7701 91.3163C81.0828 91.2329 81.3806 91.1011 81.6663 90.9504C81.6866 90.8737 81.7258 90.723 81.7448 90.6463C81.8125 90.6315 81.9478 90.6006 82.0142 90.5844C82.1577 90.2696 82.3052 89.9561 82.4338 89.6345C82.5015 89.4448 82.5638 89.2524 82.6328 89.0641C82.6599 88.3201 82.6639 87.5761 82.6287 86.8347L82.5056 86.8563C82.4961 86.6275 82.4893 86.4029 82.4825 86.1782C82.4325 86.1849 82.3309 86.197 82.2808 86.2037C82.2714 86.0947 82.2538 85.8768 82.2443 85.7678C82.2159 85.7772 82.1577 85.7988 82.1292 85.8095C82.0534 85.675 81.9776 85.5431 81.8991 85.414C81.6879 85.1637 81.4686 84.9215 81.2439 84.6861C81.1126 84.6377 80.9827 84.5919 80.8541 84.5475L80.892 84.4399C80.8094 84.4305 80.6442 84.4103 80.5617 84.4009C80.4155 84.3349 80.2679 84.2717 80.1217 84.2125C79.4855 84.1425 78.8235 84.0887 78.209 84.3094Z" fill="#0F0B0F"/>
<path d="M94.3774 83.0797C96.1764 83.042 97.9768 83.0433 99.7759 83.0554C100.183 83.0824 100.618 83.0231 100.996 83.2115C101.189 83.2223 101.385 83.2317 101.583 83.2411L101.56 83.3245C101.858 83.381 102.152 83.4537 102.452 83.5048L102.397 83.6017C102.592 83.6515 102.786 83.7066 102.983 83.7658C103.091 83.8909 103.228 83.9824 103.377 84.0632L103.359 84.1829C103.428 84.1735 103.568 84.1573 103.638 84.1479C103.647 84.2179 103.668 84.3551 103.677 84.4251C103.715 84.4237 103.792 84.4224 103.83 84.4224C103.941 84.5341 104.056 84.6457 104.174 84.7561C104.16 84.8058 104.133 84.9054 104.12 84.9538L104.261 84.9323C104.533 85.4045 104.717 85.9225 104.737 86.4715L104.866 86.384C104.872 86.9558 104.877 87.529 104.86 88.1008L104.717 88.0147C104.671 88.3147 104.615 88.6134 104.569 88.9161L104.469 88.8286C104.338 89.1906 104.108 89.5094 103.779 89.718C103.715 89.8229 103.653 89.9305 103.593 90.0382C103.411 90.1512 103.229 90.2655 103.048 90.3786L103.103 90.4902C102.998 90.5023 102.786 90.5266 102.681 90.54C102.686 90.579 102.696 90.6598 102.701 90.7001C102.601 90.766 102.402 90.8992 102.302 90.9665C102.462 90.9853 102.782 91.0217 102.942 91.0405C102.943 91.0688 102.948 91.1253 102.949 91.1522C103.187 91.2033 103.425 91.2598 103.666 91.3096L103.586 91.4361C103.707 91.4589 103.948 91.5047 104.068 91.5275C104.054 91.5558 104.022 91.611 104.007 91.6392C104.749 91.9863 105.409 92.655 105.64 93.4488C105.671 93.438 105.733 93.4192 105.766 93.4084C105.813 93.6937 105.878 93.9762 105.934 94.2628C105.962 94.2588 106.02 94.2507 106.049 94.2466C106.069 95.062 106.073 95.8773 106.05 96.6926L105.935 96.6455C105.888 96.8608 105.834 97.0774 105.782 97.294C105.606 97.4972 105.54 97.7582 105.479 98.0138C105.444 98.0152 105.375 98.0179 105.341 98.0192C105.276 98.1954 105.188 98.3609 105.024 98.4659C104.95 98.5627 104.877 98.661 104.805 98.7619C104.627 98.9166 104.451 99.074 104.277 99.2314C104.141 99.2785 104.007 99.327 103.873 99.3781L103.947 99.4951C103.784 99.5395 103.623 99.5853 103.463 99.631C103.463 99.6539 103.466 99.6996 103.466 99.7225C103.176 99.8194 102.889 99.923 102.602 100.024C102.55 100.014 102.443 99.9956 102.388 99.9862L102.448 100.161C101.154 100.293 99.8544 100.347 98.5521 100.316C96.5785 100.284 94.6034 100.319 92.6284 100.298C92.6338 100.075 92.6406 99.853 92.6501 99.6324C92.975 99.5395 93.3093 99.4817 93.6491 99.4817L93.5774 99.3754C93.9456 99.4077 94.2122 99.187 94.4166 98.9126C94.4126 98.8197 94.4044 98.6354 94.4004 98.5426C94.4356 98.5466 94.5087 98.5547 94.5439 98.5587C94.5804 93.9883 94.5764 89.4166 94.5439 84.8449L94.4518 84.8771C94.4099 84.6767 94.3476 84.4829 94.1784 84.3538L94.173 84.3C93.9266 84.2488 93.6789 84.1937 93.4325 84.1506C93.4447 84.1237 93.4677 84.0699 93.4799 84.043C93.2146 84.0363 92.9506 84.0268 92.688 84.0147C92.6839 83.7995 92.6812 83.5855 92.6812 83.3716C92.9127 83.3165 93.1469 83.2626 93.3824 83.2169C93.7384 83.2115 94.0945 83.2007 94.4518 83.2021L94.3774 83.0797ZM97.5409 84.3201C97.526 84.5798 97.5125 84.8395 97.5084 85.1018L97.415 85.1059C97.4245 86.0921 97.4286 87.0782 97.4123 88.0644L97.5125 88.0523C97.5125 88.1896 97.5139 88.464 97.5139 88.6013L97.3907 88.5918C97.411 88.9094 97.4584 89.2255 97.5287 89.539L97.3758 89.5457C97.4096 89.6588 97.48 89.8875 97.5139 90.0005C97.5193 90.166 97.5247 90.3315 97.5315 90.4997C98.2963 90.5952 99.0787 90.5965 99.8395 90.4593C100.044 90.3126 100.29 90.2481 100.529 90.1754L100.531 90.0395C100.579 90.0462 100.671 90.057 100.717 90.0624C100.813 89.9601 100.91 89.8606 101.012 89.7624C101.408 89.3305 101.659 88.7842 101.611 88.1882C101.647 88.1976 101.718 88.2165 101.754 88.2259C101.763 87.7025 101.774 87.1792 101.768 86.6571L101.622 86.7379C101.588 86.38 101.621 85.9898 101.399 85.6857C101.31 85.5539 101.23 85.4193 101.154 85.2835C101.024 85.0601 100.832 84.8933 100.593 84.7978L100.668 84.7184C100.373 84.5852 100.084 84.4426 99.7975 84.2946C99.5173 84.265 99.2425 84.2179 98.9691 84.1641C98.4858 84.1399 97.9958 84.1425 97.5409 84.3201ZM97.5355 91.7818C97.4096 92.955 97.3176 94.1619 97.5369 95.3284L97.3907 95.3176C97.5829 96.2607 97.4624 97.2281 97.5883 98.178C97.767 98.4161 97.9457 98.6569 98.1338 98.8897C98.2868 98.9812 98.4411 99.0754 98.5887 99.1789C99.2777 99.3619 99.9897 99.3323 100.688 99.2287L100.602 99.1224C100.868 99.0821 101.131 99.0135 101.387 98.9247C101.556 98.7646 101.739 98.6206 101.928 98.4847C102.093 98.3354 102.226 98.1605 102.334 97.9667C102.44 97.8012 102.516 97.621 102.574 97.4366C102.601 97.4501 102.656 97.477 102.684 97.4918C102.912 96.4114 102.862 95.3082 102.743 94.2197C102.703 94.2292 102.621 94.2466 102.581 94.2561C102.541 93.8188 102.329 93.4394 102.07 93.0963C101.901 92.9335 101.745 92.76 101.584 92.5931C101.446 92.5003 101.304 92.4128 101.166 92.3267L101.195 92.2581C101.021 92.1922 100.851 92.1263 100.68 92.0644C100.412 91.9756 100.148 91.8854 99.8936 91.767C99.1126 91.6863 98.3085 91.5935 97.5355 91.7818Z" fill="#0F0B0F"/>
<path d="M110.381 83.0769C114.122 83.0446 117.867 83.0742 121.609 83.0634C121.776 83.6366 121.775 84.2353 121.756 84.8286C121.787 84.834 121.848 84.8434 121.879 84.8488C121.895 85.4879 121.964 86.1243 121.945 86.7647C121.712 86.8817 121.478 87.0055 121.225 87.0741C121.396 86.9867 121.574 86.914 121.756 86.8481C121.523 86.8427 121.301 86.7956 121.083 86.727C121.064 86.4902 121.041 86.2534 121.025 86.0193C120.984 86.0247 120.904 86.0328 120.865 86.0382C120.804 85.7691 120.73 85.504 120.661 85.239L120.525 85.2524L120.583 85.1179C120.432 84.9982 120.283 84.8798 120.129 84.7681C120.135 84.7344 120.147 84.6685 120.153 84.6349C119.944 84.5703 119.743 84.5071 119.54 84.4344C119.444 84.4263 119.25 84.4089 119.154 84.4008L119.199 84.281C117.9 84.2636 116.601 84.2447 115.303 84.2824C115.202 84.4721 115.079 84.6631 115.109 84.8905C115.105 86.8495 115.091 88.8097 115.114 90.77C116.306 90.7808 117.498 90.7848 118.691 90.7606L118.618 90.6516C118.921 90.618 119.159 90.4471 119.354 90.2238C119.403 89.8834 119.448 89.5389 119.576 89.2187C119.588 89.06 119.602 88.9026 119.617 88.7465C119.763 88.7075 119.912 88.6685 120.062 88.6294C120.215 88.6725 120.371 88.7142 120.528 88.7573C120.528 88.9389 120.532 89.1219 120.537 89.3062L120.399 89.2201C120.372 90.9059 120.398 92.593 120.406 94.2789C120.141 94.2762 119.878 94.2708 119.617 94.2614C119.607 94.0246 119.598 93.7864 119.597 93.551L119.487 93.5981C119.456 93.2092 119.396 92.8245 119.331 92.441L119.207 92.5177C119.174 92.4477 119.109 92.3051 119.077 92.2352C118.346 91.9876 117.57 92.0576 116.813 92.0455C116.246 92.0428 115.679 92.0428 115.113 92.0751C115.096 93.9479 115.094 95.8207 115.123 97.6949C115.24 97.9895 115.313 98.299 115.407 98.603C115.54 98.6905 115.652 98.7995 115.747 98.93C116.434 99.2017 117.188 99.0739 117.908 99.1183C118.761 99.0901 119.63 99.1816 120.47 99.0013C120.556 98.9878 120.73 98.9609 120.816 98.9488L120.784 98.8614C121.011 98.7604 121.23 98.6407 121.428 98.4873C121.59 98.3326 121.726 98.155 121.848 97.968C121.975 97.7756 122.109 97.5886 122.24 97.3989C122.353 97.0814 122.48 96.7706 122.618 96.4638C122.688 96.4477 122.829 96.414 122.898 96.3979L122.821 96.2728C122.906 96.2701 123.074 96.266 123.159 96.2647L123.075 96.4073C123.222 96.4477 123.371 96.4907 123.521 96.5351C123.402 96.9253 123.379 97.333 123.376 97.7379C123.339 97.7326 123.265 97.7218 123.228 97.7164C123.184 98.0433 123.139 98.3703 123.12 98.7013C123.088 98.6905 123.023 98.6676 122.99 98.6569C122.956 99.0134 122.879 99.3686 122.722 99.6942C122.705 99.8354 122.69 99.9781 122.677 100.122C122.613 100.166 122.483 100.258 122.418 100.302C118.223 100.3 114.026 100.308 109.832 100.294C109.836 100.075 109.843 99.8583 109.853 99.643C110.359 99.5529 110.868 99.4803 111.384 99.4533C111.612 99.2865 111.837 99.1116 112.044 98.9165C112.023 98.8573 111.981 98.7389 111.96 98.6797C112.006 98.6824 112.097 98.6878 112.143 98.6905C112.208 96.3333 112.176 93.9761 112.182 91.619C112.173 89.3035 112.212 86.988 112.138 84.6739L112.05 84.7223C111.94 84.5273 111.829 84.3335 111.721 84.1411L111.573 84.2003C111.581 84.1559 111.595 84.0658 111.603 84.02C111.487 84.0079 111.256 83.9837 111.141 83.9716C110.928 83.9299 110.71 83.9043 110.497 83.8815L110.566 83.7146C110.509 83.7281 110.397 83.755 110.34 83.7684C110.35 83.5357 110.364 83.307 110.381 83.0769Z" fill="#0F0B0F"/>
<path d="M127.876 83.077C130.208 83.0447 132.544 83.0568 134.877 83.0702C134.876 83.1819 134.871 83.4053 134.869 83.5169C134.931 83.5062 135.056 83.486 135.118 83.4752C134.965 83.5936 134.824 83.7255 134.716 83.8869C134.316 83.9528 133.916 84.0147 133.512 84.0403L133.575 84.117C133.294 84.2179 133.114 84.4116 133.116 84.717L133.005 84.643C132.829 86.0652 132.941 87.5021 132.909 88.9322C132.909 91.5787 132.909 94.2251 132.91 96.8716C132.909 97.2671 132.959 97.66 132.99 98.0555C133.018 98.0421 133.075 98.0152 133.104 98.0017C133.116 98.2627 133.206 98.5116 133.328 98.743C134.034 99.2758 134.951 99.0606 135.774 99.1198C136.677 99.0754 137.619 99.2287 138.49 98.9153C138.696 98.6596 138.945 98.4417 139.201 98.2358C139.261 98.069 139.325 97.9048 139.393 97.742C139.418 97.7515 139.47 97.769 139.496 97.7784C139.57 97.4972 139.645 97.2093 139.844 96.9859C139.877 96.8527 139.911 96.7195 139.945 96.5877C140.01 96.5433 140.141 96.4518 140.206 96.406C140.417 96.4168 140.631 96.4289 140.847 96.4437C140.838 96.6953 140.83 96.9482 140.826 97.2025C140.776 97.2146 140.675 97.2375 140.625 97.2496C140.608 97.7488 140.51 98.2399 140.447 98.735L140.354 98.6744C140.302 98.9987 140.221 99.3175 140.156 99.6391L140.038 99.6512C140.052 99.7225 140.08 99.8651 140.095 99.9364L139.927 99.884C139.926 99.9876 139.923 100.196 139.922 100.3C135.898 100.31 131.87 100.29 127.844 100.306C127.854 100.055 127.855 99.8046 127.899 99.5584C128.41 99.514 128.902 99.3512 129.415 99.2974C129.553 99.1588 129.695 99.0229 129.84 98.8897C129.859 98.5439 129.882 98.1995 129.89 97.8537L130.029 97.9075C130.024 93.6681 130.052 89.4274 130.016 85.1866L129.882 85.2781C129.861 84.9781 129.832 84.6807 129.764 84.3874L129.581 84.448C129.587 84.3901 129.598 84.2744 129.603 84.2165C129.164 84.0188 128.689 83.9407 128.214 83.9017C128.226 83.8748 128.252 83.8223 128.265 83.7954C128.169 83.782 127.98 83.7564 127.885 83.7443C127.873 83.521 127.87 83.299 127.876 83.077Z" fill="#0F0B0F"/>
<path d="M144.028 83.0742C146.336 83.0473 148.645 83.0594 150.953 83.0674C151.001 83.2571 151.047 83.4536 151.17 83.615C151.113 83.6177 151.001 83.6231 150.945 83.6258C150.96 83.6836 150.99 83.7994 151.005 83.8572C150.798 83.8949 150.59 83.9352 150.389 83.9837C150.295 83.981 150.107 83.9756 150.012 83.9729L150.041 84.1115C149.846 84.1411 149.651 84.1693 149.459 84.1949C149.193 84.5555 149.051 84.9874 149.089 85.4367C149.073 89.6371 149.059 93.8389 149.1 98.0393C149.126 98.0339 149.174 98.0218 149.199 98.0164C149.252 98.2182 149.314 98.4214 149.378 98.6245C149.487 98.7268 149.598 98.8317 149.709 98.938C150.007 99.0389 150.317 99.0968 150.635 99.1062L150.551 99.23C151.658 99.2367 152.766 99.238 153.873 99.2206L153.793 99.0954C154.325 99.1412 154.741 98.7981 155.121 98.4792C155.211 98.3339 155.296 98.1873 155.378 98.0379C155.396 98.0393 155.433 98.0406 155.451 98.042C155.553 97.8011 155.665 97.5657 155.778 97.3302L155.864 97.3746C155.906 97.1674 155.951 96.9603 155.998 96.7558L156.143 96.8459C156.154 96.7369 156.174 96.5203 156.184 96.4127C156.448 96.4194 156.712 96.4288 156.978 96.4423C156.955 96.7194 156.934 96.9993 156.881 97.2764C156.851 97.4755 156.83 97.6787 156.809 97.8819L156.713 97.8657C156.705 98.1832 156.636 98.494 156.479 98.7725C156.455 98.9703 156.434 99.1681 156.419 99.3686C156.387 99.3578 156.321 99.3376 156.287 99.3282C156.242 99.6457 156.184 99.9619 156.139 100.281C152.079 100.329 148.016 100.29 143.955 100.297C143.955 100.075 143.956 99.8529 143.959 99.6336C144.542 99.4964 145.132 99.3874 145.714 99.2354C145.855 99.0093 145.991 98.7766 146.027 98.5088L146.11 98.564C146.171 95.2637 146.125 91.962 146.138 88.6617C146.138 87.3889 146.146 86.1162 146.106 84.8447C146.061 84.8421 145.974 84.8353 145.931 84.8313L146.026 84.6429C145.865 84.4317 145.686 84.2339 145.45 84.1061C145.457 84.0873 145.473 84.0496 145.48 84.0308C145.009 83.9944 144.545 83.911 144.076 83.8801L144.113 83.6769C144.009 83.6581 143.907 83.6379 143.81 83.6177C143.928 83.4563 143.993 83.2679 144.028 83.0742Z" fill="#0F0B0F"/>
</svg>
